<svg xmlns="http://www.w3.org/2000/svg" width="128.196" height="267.17" fill="none" viewBox="0.101 -0.17 128.196 267.17">
  <path fill="#12142d" d="M127.909 57.132a22.8 22.8 0 0 1 .388 6.563q-.89 10.09-9.522 17.094-8.485 6.893-20.1 6.974-1.94.075-3.997-.11-7.54-.682-14.108-4.54-6.556-3.981-10.45-9.983-3.743-6.114-3.107-13.338l.078-.872 16.039 1.449q.164 4.409 3.645 7.234 3.63 2.715 8.153 3.122 4.935.446 9.197-2.433 3.416-2.705 3.648-5.32.252-2.865-2.588-5.13-2.829-2.39-8.143-3.248-14.201-1.91-22.239-11.048T67.7 23.82q.46-5.232 3.38-10.116 3.054-4.87 9.06-8.723 4.683-2.967 9.887-4.004Q95.38-.17 100.589.3a35.85 35.85 0 0 1 14.393 4.44q6.716 3.745 10.598 9.87 4.019 6.14 3.315 14.111l-.022.25-16.039-1.45q-.163-4.408-3.794-7.122-3.481-2.826-8.005-3.234-4.935-.446-9.196 2.433-2.972 2.37-3.192 4.86-.264 2.989 2.554 5.504 2.967 2.402 7.72 3.334 26.194 5.38 28.988 23.837" />
  <path fill="#12142d" d="m67.856 43.389-3.688.155.04.993q.272 6.579-.673 13.581-.811 6.873-3.836 13.217-3.027 6.22-8.854 10.942-7.447 5.285-16.326 5.66-4.37.184-8.794-.873-13.733-4.52-19.424-16.466T.101 46.24l-.036-.869q-.295-7.2.759-14.828 1.191-7.635 4.751-14.25Q9.265 9.548 16.186 4.78 23.394.374 31.591.03q8.333-.351 16.02 3.553 7.843 4.395 12.247 11.67t6.097 15.161a62.8 62.8 0 0 1 1.901 12.976M47.643 54.31q.75-5.006.68-10.1l-3.689.155q-.158-3.847-.914-8.914-.755-5.066-2.988-9.448-2.096-4.388-6.14-6.207a12 12 0 0 0-2.883-.252q-5.055.213-7.735 4.926-2.684 4.59-3.65 11.095-.831 6.376-.602 11.962.194 4.717.999 7.667 1.05 5.55 3.87 10.903 2.95 5.223 9.538 5.692 4.781-.202 7.402-3.047 2.756-2.852 4.1-6.763 1.34-4.035 2.011-7.67m-1.862 70.504q.001 3.12-.088 7.132-.089 3.9-.089 7.131 0 11.031-5.512 20.057-5.513 9.026-14.226 12.035a25.4 25.4 0 0 1-7.469 1.114h-1.333a671 671 0 0 0-7.38-.223h-7.29q.088-18.943.444-38.777.266-19.724.356-38.667l15.47.223V91.83h.178q10.492 0 18.405 9.694 8.003 9.582 8.535 23.289m-14.314 18.609q.534-3.567.534-7.577 0-3.455-.178-6.798-.09-.668-.089-1.337-.355-6.909-3.823-11.923t-8.802-5.015h-.445v-3.008l-4.712.223q.355 11.477.444 24.291 0 12.815.356 24.292a14 14 0 0 1 1.867-.111 20 20 0 0 1 1.867-.111q4.535 0 8.18-3.566 3.735-3.678 4.801-9.36m49.108-12.815q.177.669 1.334 7.02 1.245 6.352 2.844 14.486a975 975 0 0 1 2.668 13.818q.888 4.345 1.066 5.237l-10.046 3.343-4.269-18.832-12.625 2.117-4.534 19.166-14.403-5.794a6679 6679 0 0 0 21.072-78.447h9.246q4.446 21.951 7.647 37.886m-14.76 9.36 4.98.891a195 195 0 0 0-3.023-11.143 90 90 0 0 1-.624 3.567 418 418 0 0 1-.888 4.345q-.356 2.007-.444 2.34m48.395-42.009 8.891 6.686-12.625 31.981-1.689 27.634H98.385l-2.045-32.984-14.315-25.071 12.981-9.806 8.179 20.837zM12.027 267 1.622 250.9q4.617-2.317 9.277-3.634a82.6 82.6 0 0 1 11.105-17.371 217 217 0 0 1 7.896-8.733 111 111 0 0 0 10.864-12.505q2.354-3.376 2.613-6.908.155-2.099-.672-3.603-.709-1.497-2.106-1.601-1.047-.08-2.267.606l-1.37 1.118q-2.952 3.554-3.252 7.638-.186 2.539 1.29 4.76l-16.13 10.888q-5.052-7.706-4.429-16.206.454-6.183 3.443-11.842 3.115-5.76 8.202-9.709 7.38-4.884 15.178-4.299 5.586.42 10.272 3.546t7.199 8.756q2.04 5.704 1.675 10.672-.412 5.63-3.354 10.627-2.817 4.894-7.005 9.354a228 228 0 0 1-8.72 8.781q-7.135 6.346-12.309 13.063a244 244 0 0 1 27.413-.384l.574 12.92q-2.834.343-5.66.574a214 214 0 0 0-20.45 2.794Q20.703 261.99 12.027 267m78.887-3.79q-7.101 0-12.402-2.352-5.248-2.351-8.8-6.39-3.498-4.09-5.248-9.509-1.698-5.47-1.698-11.606 0-4.806 1.235-9.202a47.3 47.3 0 0 1 3.293-8.487 65 65 0 0 1 4.837-7.924 182 182 0 0 1 5.712-7.567 327 327 0 0 1 6.021-7.311 149 149 0 0 0 5.712-7.157q.412-.512.823-1.074.463-.614.978-1.073a4.7 4.7 0 0 1 1.08-.818 2.35 2.35 0 0 1 1.287-.358h12.916q1.287 0 2.213.358.927.357.926 1.124 0 .716-.823 1.687a98 98 0 0 0-8.285 11.146 141 141 0 0 0-6.947 12.27 24 24 0 0 1 3.55-.716 30 30 0 0 1 3.603-.205q5.66 0 9.829 2.199 4.219 2.198 6.947 5.726 2.778 3.476 4.116 7.873 1.39 4.346 1.39 8.691 0 6.902-2.059 12.577-2.058 5.624-6.123 9.662-4.065 3.988-10.138 6.187-6.02 2.249-13.945 2.249m-4.734-27.096q0 1.482.257 3.425a14.6 14.6 0 0 0 .978 3.63q.771 1.738 2.006 2.965 1.287 1.176 3.294 1.176 1.954 0 3.345-.818a7.7 7.7 0 0 0 2.418-2.147 10.9 10.9 0 0 0 1.544-3.016q.566-1.739.875-3.528.309-1.84.36-3.63.103-1.789.103-3.221a43 43 0 0 0-.154-3.578q-.155-1.892-.824-3.375a5.84 5.84 0 0 0-1.904-2.454q-1.234-.97-3.447-.971-2.934 0-4.683 1.585-1.75 1.585-2.676 3.936t-1.235 5.062a53 53 0 0 0-.257 4.959" />
</svg>
