<svg xmlns="http://www.w3.org/2000/svg" width="800" height="450.667" preserveAspectRatio="xMidYMid meet" viewBox="0 0 600 338">
  <g fill="#fff" stroke="none">
    <path d="M279.8 33.8c-10.8 16.3-37.3 56.5-59 89.2s-39.7 60.1-40.2 60.7c-.6 1 4.4 1.3 23.8 1.3h24.4l2.3-3.8c1.3-2 22.7-34.4 47.6-72s45.3-68.6 45.3-69c0-.9-23.4-36.2-24-36.2-.3 0-9.3 13.4-20.2 29.8m22.6-22.1c1.1 1.5 2.1 3.1 2.1 3.4 0 .4.3 1.1.8 1.5 1.1 1.2.8 2.6-.5 1.8-.7-.4-.8-.3-.4.4.4.6 1.3.9 2.1.5.8-.3 1.5 0 1.5.5 0 .6.6 1.7 1.3 2.4 3.5 3.9 5.1 6.1 3.7 5.3s.2 1.5 3.8 5.3c3.1 3.3 4.2 7 3.1 9.6-.7 1.4-1.6 2.3-2.2 1.9-.6-.3-.7-.1-.3.5.4.7.4 1.7 0 2.3-.4.8-.9.7-1.5-.2-.7-1.1-.9-1.1-.9.2 0 .9-.7 2.2-1.5 2.9s-1.5 1.7-1.5 2.3.7.2 1.6-.9c1.5-1.9 1.5-1.9.5.1-.5 1.1-2.1 3.2-3.5 4.6-1.4 1.5-2.3 2.9-2 3.1.2.3-.9 2.2-2.6 4.3-1.6 2.1-3 4.2-3 4.7s-.5.6-1.2.2c-.6-.4-.8-.3-.5.3.4.6-.2 2.2-1.3 3.6s-2 2.9-2 3.4-1.3 2.2-2.8 3.9c-1.6 1.6-3.4 4.4-4.1 6.1-.8 1.8-1.6 3.3-2 3.3-.3 0-1.7 2-3.1 4.4-1.3 2.5-2.7 4.3-3 4.1s-1.2.5-1.9 1.7c-1 1.6-1 1.9.1 1.2.7-.5-.2.9-2 3.1-1.7 2.2-3.2 4.3-3.2 4.8 0 1.1-10.6 16.5-13.8 20.2-1.5 1.6-1.8 2.3-.8 1.5 1.8-1.4 1.8-1.4.6.7-.8 1.1-1.9 1.9-2.6 1.6-.6-.2-1.5.1-2 .8-.4.8-.3 1 .4.5 1.5-.9 1.6.6.1 2.1-1.3 1.3-3.1 4.4-5.2 8.8-.8 1.6-2.9 4.5-4.8 6.4s-2.7 3-1.9 2.5c.8-.4-.2 1.2-2.1 3.6-2 2.5-4.4 6.1-5.4 8s-2.4 3.9-3.2 4.3c-.7.5-1 1.3-.7 1.9.4.6.3.8-.3.5-.6-.4-1.4 0-1.7.9-.4 1-.2 1.3.7.9.6-.4-.2.6-1.8 2.2-1.7 1.5-2.4 2.4-1.5 1.9.8-.6.3.3-1.1 1.8l-2.5 2.7-19.1.2c-10.5.1-18.9-.1-18.6-.6.7-1.2-1.2-.8-2.5.5-.8.8-1.2.8-1.2.1 0-.6 1.1-1.8 2.5-2.7s2.3-2.1 2-2.6c-.8-1.3 1.1-4.6 5.2-9.4 1.8-2.2 3.3-4.5 3.3-5.1 0-.7.9-2 2-3s1.8-2.1 1.5-2.4c-.2-.4 0-1.3.6-2.1.7-1.2.9-1.1 1 .5 0 1.2.5.6 1.1-1.5.5-1.9 2.9-6 5.3-9.1 2.3-3.1 4.9-6.7 5.6-8s1.9-3 2.8-3.7c.9-.8 1-1.1.4-.7-.8.4-1.1.1-.7-.9.3-.8 1.3-1.8 2.3-2.1.9-.3 1.7-1.4 1.8-2.5s1.5-3.7 3.2-5.7 2.7-4.1 2.4-4.6c-.3-.6-.1-.7.4-.4.6.4 1.4-.1 1.7-1 .6-1.5.8-1.5 1.6-.3.6.9 1 1 1 .3 0-.6-.5-1.5-1.1-1.8-.6-.4.1-1.6 1.8-3 1.5-1.4 2.4-2.7 2.1-3.1-.4-.3.9-2.8 2.8-5.5s3.4-5.1 3.4-5.5c0-.3 1.2-1.9 2.7-3.5 2-2 3-2.5 3.6-1.6.5.7.6.4.2-1-.6-2.3.2-4.1 4.6-10.5 1.5-2 3-3.4 3.4-3 .3.4.6.2.4-.3-.1-.6.4-2.2 1.1-3.8 1.2-2.4 2.3-3 5.5-3 .6 0 1.2-.8 1.2-1.9.2-1.6 0-1.7-1.3-.3-2.7 2.7-2.7 1.6 0-2 1.5-1.9 2.3-3.5 1.9-3.5s0-.5 1-1.1c.9-.6 1.5-1.4 1.2-2-.4-.5-.1-.9.4-.9.6 0 1.1-.7 1.1-1.6 0-1 .6-1.4 1.5-1.1.8.4 1.7.1 2.1-.5.5-.7.2-.8-.6-.3-.9.6-1 .2-.5-1.6 1.2-3.6 3.6-7 4.6-6.3.5.3.9.2.8-.3-.3-2 .2-3.4 1.1-2.8s1.4-.9 1.3-4.1c0-.6.9-1 2.1-.8 1.1.2 1.5.2.8-.2-.8-.4-.6-1.1 1-2.6 1.3-1.1 1.7-1.7 1.1-1.3-2.3 1.1-1.4-.8 2-4.4 1.7-1.8 2.5-3 1.7-2.6-1.4.8.1-1.3 3.7-5.2 1.4-1.6 2.7-1.7 1.7-.1-.4.7-.3.8.5.4.8-.6.9-1.1.2-2-.8-1-.5-1.8.9-3.1 1.1-1 2-2.2 2-2.7 0-.9 3.2-5.7 3.9-5.8.2 0 1.3 1.2 2.5 2.7"/>
    <path d="M299 14.4c.7.7 1.3.7 2 0 .6-.6.3-1-1-1s-1.6.4-1 1m6.5 8.6c-.3.6.1.7.9.4 1.8-.7 2.1-1.4.7-1.4-.6 0-1.3.4-1.6 1m-21.4 13.3c-1.3 2.1-1.2 2.1.5.5 1-1 1.6-2 1.3-2.2-.3-.3-1.1.5-1.8 1.7m1.9 1.6c0 .6.4 1.3 1 1.6s.7-.1.4-.9c-.7-1.8-1.4-2.1-1.4-.7m26.7.6c-.4.8-.3 1.6.1 1.9s.9-.4.9-1.5c.2-2.3-.3-2.5-1-.4m-45.7 23c-.7.9-.8 1.5-.2 1.5.5 0 1.2-.7 1.6-1.5.3-.8.4-1.5.2-1.5s-.9.7-1.6 1.5M246 94c.6 1.1 1.3 2 1.6 2 .2 0 0-.9-.6-2s-1.3-2-1.6-2c-.2 0 0 .9.6 2m-17.4 24.8c-.2.4.4.8 1.4.8s1.6-.4 1.4-.8c-.3-.4-.9-.8-1.4-.8s-1.1.4-1.4.8m35.9 4.3c-.4.6-.5 1.2-.2 1.5.2.3.7-.2 1-1.1.7-1.7.1-2-.8-.4m-14.8 22.6c.3.7.6 1.3.8 1.3s.5-.6.8-1.3c.3-.8-.1-1.4-.8-1.4s-1.1.6-.8 1.4m-42.6 10.9c0 1.1.3 1.4.6.6.3-.7.2-1.6-.1-1.9-.3-.4-.6.2-.5 1.3m-16.6 18.3c-.3.5-.2 1.2.3 1.5s.9-.1.9-.9c0-1.7-.3-1.9-1.2-.6M336.1 71.6c0 1.1.3 1.4.6.6.3-.7.2-1.6-.1-1.9-.3-.4-.6.2-.5 1.3M333 86.2c-5.8 8.8-11.1 17.1-11.9 18.3-1.3 2.1-.6 3.4 10.5 20.4 6.5 9.9 12.1 18.1 12.4 18.1s5.9-8.2 12.4-18.1c11.1-17 11.8-18.3 10.5-20.4-6-9.7-22.5-34.4-22.9-34.4-.3 0-5.2 7.3-11 16.1m12.1-10c.1.7.1 1.7 0 2.1-.1.5.3.6.8.3.9-.6 2.6 2.2 2.2 3.7-.1.5.3.6.9.2.5-.3 1.3.2 1.7 1.2.3 1 1.3 2.6 2 3.5.8.9 1.2 2.2.8 2.8-.3.6-.1.9.7.8.7-.2 1.2.5 1.2 1.4-.1 1 .1 1.6.5 1.4.3-.2 1.9 1.4 3.4 3.6 1.6 2.2 2.2 3.7 1.5 3.3s-.1.3 1.3 1.6c3.5 3.2 3 6.8-1.4 12.2-1.9 2.3-3.9 5.2-4.6 6.5-.7 1.2-1.7 2-2.3 1.6-.7-.4-.8-.2-.4.5 1 1.5-2.1 6.4-3.5 5.6-.5-.4-.8-.3-.7.2.4 1.7-1.4 5.3-2.4 4.7-.7-.5-.9-.1-.5.9.7 1.8-1.7 4.2-3.3 3.2s-5-8.2-4.2-9c.4-.5.2-.5-.4-.2-1.5.9-3.8-1.9-2.8-3.4.5-.8.3-.9-.6-.4s-1 .2-.6-1.3c.4-1.1.2-2.3-.3-2.7-.7-.4-.9.1-.5 1.2.5 1.7.4 1.7-.8-.1-.7-1-2.7-3.7-4.5-5.9-1.7-2.3-2.9-4.5-2.7-4.9.3-.4 0-.8-.6-.8-.7 0-.9-.7-.6-1.6.3-.8.2-1.2-.4-.9-1.5.9-1.2-3.1.3-4.4.8-.6 1.8-.7 2.2-.3.5.4.5.2.1-.5-.8-1.5 4.1-9.6 5.4-8.8.5.3.7 0 .4-.8s.6-2.7 1.9-4.3 2.7-3.7 3-4.7c.4-1 1.2-1.5 1.7-1.2.6.4.9.2.8-.4-.3-1.2 3.4-7.1 4.5-7.1.4 0 .8.6.8 1.2"/>
    <path d="M340.5 85.1c-.4.6-.5 1.2-.2 1.5.2.3.7-.2 1-1.1.7-1.7.1-2-.8-.4m31.3 75.3-15.7 24.1 16 .3c8.7.1 23.1.1 31.9 0l16-.3-15.6-23.5c-8.6-12.9-15.9-23.8-16.2-24.1-.4-.4-7.8 10.2-16.4 23.5m17.7-17.5c-.2.5.4 1.6 1.5 2.6s1.7 2.1 1.5 2.5c-.3.4.2 1 1 1.4.8.3 1.5 1.2 1.5 1.9 0 .8.7 2 1.5 2.7.9.7 1.4 1.8 1.2 2.4s.7 1.9 2 3c1.9 1.4 2.3 2.5 1.8 4.5-.4 1.9-.3 2.2.5 1.1.9-1.3 1.1-1.2 1 .5 0 .3 1.3 1.7 3 3.1 1.6 1.4 2.8 3 2.4 3.5-.3.5 0 .9.6.9.7 0 1 .7.7 1.4-.4 1.1-.1 1.3 1.1.9 1.5-.6 1.5-.5.3 1s-1.2 1.7.3 1.1c1.2-.5 1.5-.2.9 1.2-.4 1.2-.3 1.5.6 1 1-.6 1-.4.1 1-1.1 1.8-2.9 1.9-25 1.9s-23.9-.1-25-1.9c-.6-1-.7-1.5-.1-1.2 1 .7 2.4-1 2.7-3.2.1-.6-.3-.9-.8-.6-.7.5-.8.2-.4-.5.5-.7 1.4-1 2.2-.7s1.1 0 .7-.9c-.5-1.5 4-7.7 5.1-6.9.3.2.4.1.1-.3-.3-.3.1-1.3.8-2.1 1-1.3.9-1.4-.3-.7-.8.4-.6-.2.5-1.3 2.9-3 4-4.6 4.3-6.2.2-.8.7-1.7 1-2 1.9-1.4 5.5-6.2 4.2-5.5-.8.5-.5-.3.8-1.7 1.2-1.3 2.2-3 2.2-3.7s.5-.9 1-.6c.6.3 1 .1 1-.5s.5-.8 1-.5c.6.4.8 1 .5 1.4M363 181.4c0 .3-.4.8-1 1.1-.5.3-1 .1-1-.4 0-.6.5-1.1 1-1.1.6 0 1 .2 1 .4m52 .6c0 .5-.2 1-.4 1-.3 0-.8-.5-1.1-1-.3-.6-.1-1 .4-1 .6 0 1.1.4 1.1 1m-130.5-22.4c-8.3 12.5-15.4 23.3-15.8 24-.7 1.2 3.4 1.4 23.7 1.4h24.5l3.6-6.1 3.7-6-7.4-11.2c-4.1-6.2-9.4-14.2-11.7-18-2.4-3.7-4.7-6.7-5-6.7s-7.4 10.2-15.6 22.6m17.7-16.2c.7 1.3 2.2 3.9 3.2 5.7 1.9 3.3 1.9 3.4 0 1.9-1.7-1.4-1.8-1.4-.6.2.8 1 2.2 2 3.2 2.3s2.1 1.3 2.4 2.1.2 1.2-.4.9-1-.1-1 .4c0 .6.6 1.1 1.4 1.1.7 0 2.1 1.6 3 3.5s2.1 3.7 2.6 4c.6.4 1.9 2.3 3 4.4 1.8 3.7 1.8 3.8 0 6.8-1 1.7-2.4 3.4-3 3.8-1.9 1.2-38 1.2-38 0 0-.6-.5-.3-1 .5-.9 1.3-1.1 1.3-1.9.1-1.2-1.8.7-6.1 2.4-5.5.7.3 1.6 0 2.1-.7.4-.8.3-1-.4-.5-2.4 1.4-1.1-1.3 2.8-6.3 2.2-2.8 4-5.5 4-6s1-1.8 2.3-2.8 2.2-2.4 2-3c-.5-1.3 3.7-6 4.9-5.6.4.2.5-.4.1-1.2-.3-.9.1-2.3.9-3.3.8-.9 1.8-2.5 2.1-3.5.9-2.4 2.4-2.1 3.9.7M87 290v43h16v-85.6l-8-.2-8-.2zm12.2-1.1c.3 21.2.4 39.1.1 39.8-.3.8-2.2 1.3-4.9 1.3H90l-.1-29.3c-.1-22.9-.1-47.9.1-50.5 0-.2 2-.2 4.4-.1l4.3.3zM335 290v43h15.9l.3-21.4c.3-24.4.8-25.8 8.6-28.6 3.7-1.3 4.7-1.3 8.4 0 2.7 1 5 2.7 6.5 4.9 2.2 3.3 2.3 4.2 2.3 24.2V333h16v-22.3c0-18.1-.3-23.3-1.6-27.2-5-14.4-23.5-20-36.8-11l-3.6 2.4v-27.7l-8-.1h-8zm13.3-35.5c.4 2.2.7 7.9.5 12.7-.2 4.7-.1 8.4.1 8.2s1.1.2 2 1c2.3 2 5.8 2.9 6.6 1.6.3-.6 1.1-.8 1.6-.5 1.5 1 1-.1-.7-1.5-1.2-1.1-1.5-1.1-1.2 0 .2.7-.3 1.5-1.1 1.8s-1.1 0-.7-.7c.5-.7.1-.9-1.1-.4-1 .3-1.6.4-1.3.2s1.8-1.5 3.4-2.9 2.5-1.8 2.1-1c-.7 1.3-.5 1.3 1.1-.1 1-.8 3.1-1.6 4.6-1.7s3.1-.3 3.5-.4c1.7-.4 8.8 1.6 9.5 2.6.6.8.8.7.8-.1 0-.7.7-1 1.5-.7.8.4 1.2 1.1.8 1.7s0 .8 1 .4c.9-.3 1.9-.2 2.2.3.3.4-.1 1.1-.7 1.3-.8.3-.6.6.5.6 1.6.1 2.2 1.3 1.7 3.6-.1.5.2.7.6.3 1-1.1 3.7 3 2.8 4.4-.4.6-.3.8.4.4s1.1 5.9 1.2 21.9l.1 22.5h-9.9l-.4-20.3c-.3-18.8-.4-20.4-2.4-22.9-1.2-1.5-2.5-2.4-2.9-2s-.2-.3.4-1.5c1-1.9.9-2.2-.4-1.7-.8.4-1.5.1-1.5-.4 0-.7-3.4-1-9.4-.9-7.6.1-9.2.4-8.4 1.5.8 1 .7 1.1-.8.6-1-.4-1.6-.3-1.1.1.4.5-.5 2.1-1.9 3.6l-2.6 2.7-.2 20.3c-.1 16.3-.4 20.3-1.5 20.7-.9.3-1.1 0-.7-.9.5-1 .3-.9-.6.1-.8.9-2.6 1.4-4.5 1.2l-3.3-.3v-39.3c0-21.6.2-39.5.4-39.7s2.4-.4 4.7-.4c4.2 0 4.3.1 5.2 4m198.5-4-7.8 3V270h-12v13.5l5.9-.3 6-.4.3 20c.3 18.6.5 20.3 2.4 22.9 3 4 7.2 6.1 13.7 6.9l5.7.7v-6.9c0-6.8-.1-7-3-8.1l-3-1.1v-34.4l7 .4 7 .4V270h-13.9l-.3-11.3-.3-11.2zm5.6 2c-.4.8-1.1 1.2-1.8.8s-.7-.1.1.8c.7.9 1.3 4.7 1.4 8.5.1 5.8.5 7.1 2.3 8.4 2.4 1.7 2.4 1.7 7.6 1.9 3.9.1 4 .2 4 3.6 0 3.3-.2 3.5-3.2 3.7-5.1.2-5.4.2-8.1 1.7l-2.6 1.4v16.1c0 13.7.3 16.4 1.7 18 1.3 1.5 1.3 1.8.2 1.2-.8-.5-.2.3 1.3 1.6 2.3 1.9 2.8 3 2.5 5.8-.3 3.3-.5 3.5-3.8 3.5-3.4 0-8.3-2.5-10.7-5.5-.9-1.1-.9-1.8 0-2.9.9-1.2.9-1.3 0-.7-1.5.8-1.4 1.7-1.6-19.6-.1-10.1.1-15.4.8-15 .6.3 0-.6-1.3-2-1.2-1.3-1.9-2.8-1.5-3.2.5-.4.4-.7-.2-.6-.5.1-2.9.2-5.2.1-4.2-.1-4.3-.2-4.3-3.6s.1-3.5 4.1-3.5c2.8 0 4.7-.6 5.6-1.8.8-.9 1.1-1.1.7-.3-.5 1-.3 1.2.5.6.7-.4 1.1-1.6.8-2.6-.3-1.1-.2-1.7.3-1.4.4.2.5-1.5.3-4-.9-7.2 0-8.9 5.4-10.7 2.7-.9 4.9-1.7 5-1.7.1-.1 0 .6-.3 1.4m-423.9-1.6-6.9 2.9.3 8.1.3 8.1H109v13.6l6.5-.4 6.5-.4v19.7c0 18.1.2 20 2 23 3 4.8 8 6.8 18.3 7.3l8.7.4V319h-5.4c-8.2 0-8.6-.9-8.6-20.3v-15.9l7 .4 7 .3V270h-14.1l.3-11c.2-6.9-.1-11-.7-10.9-.5 0-4.1 1.3-8 2.8m6.4 2.3c-.5 3.9.3 16.5 1.1 17.8.6.9 2.7 1.4 6.2 1.5l5.3.1.2 4.9c.1 2.8 0 4.5-.3 3.9-.7-1.5-9.1-.8-10.9.9-1.2 1.3-1.5 4.7-1.5 18 0 15.7.1 16.4 2.3 18.4 1.2 1.2 4 2.3 6.2 2.5 3.9.4 4 .5 4.3 4.6.2 2.6-.1 4.2-.8 4.2-.6 0-.8-.5-.4-1.2.6-1 .4-1-.8 0-1.7 1.4-12.8 1.4-12.8 0 0-.4-.8-.8-1.7-.8-2.3 0-5.3-2.9-5.3-5.2q0-1.8 1.2-1.2c.7.4.8.3.4-.5-.4-.6-1.2-.9-1.7-.6-1 .7-1.2-.3-1.3-9.5-.1-3.6-.3-11.5-.5-17.7-.2-6.1-.1-11.5.2-12s-.4-.9-1.6-.9c-10.6-.1-10.7-.1-10.7-3.9V273h5c2.9 0 5-.5 5-1.1 0-.5.5-.7 1-.4.6.4 1 .3.9-.2-.1-.4 0-1.3.1-1.8.1-.6.1-3.8 0-7.2-.1-5.5.1-6.3 2.2-7.4s2.2-1.1 1 .4c-.8.9-1.2 3.1-.9 5.4l.4 3.8.2-4c.1-2.2.7-4.7 1.4-5.6 2-2.7 6.9-3.9 6.6-1.7"/>
    <path d="m126 291.8.5 4.7.3-3.9c.2-2.1 0-4.2-.5-4.7-.4-.4-.6 1.3-.3 3.9m-87-22.5c-6.1 1.4-15 5.6-15.7 7.3-.2.7 1 3.5 2.7 6.3 3.2 5.1 3.3 5.2 5.6 3.6 1.3-.8 5.1-2.2 8.4-3.1 10.1-2.6 17 .9 17 8.5v2.9l-8.7.6c-12.4.8-21.1 3.1-24.7 6.4-7.2 6.8-7.6 18.3-.8 25.6 8.2 8.8 25.1 8.8 34.4-.1 2.4-2.3 2.6-2.4 3.2-.6.9 3 6 5.3 12.8 6l6.3.5v-14.1l-3-.3-3-.3-.5-17c-.5-14.7-.9-17.5-2.7-21-1.1-2.2-2.9-4.7-3.9-5.6-6.2-5.5-17.7-7.8-27.4-5.6m19.6 4.2c1.4.9 2.3 1.2 1.9.5s.4-.4 1.9.5c2.6 1.7 3.7 3.2 1.4 1.9-.7-.4-.4.2.7 1.3s2.4 1.8 2.9 1.5.6.3.2 1.3c-.4 1.1 0 2.6 1.1 3.8 1 1.1 1.2 1.7.6 1.3-.7-.4-1.3-.2-1.3.3 0 .6.5 1.1 1 1.1.6 0 1 5.7 1 15 0 13.7.2 15.2 2 17 2.3 2.3 2.7 8.4.8 9.7-2 1.2-5 1.4-4.3.3.3-.5 0-.7-.9-.4s-2.9-.7-4.8-2.5c-2.9-2.7-3-3.1-1.3-3.2 1.2 0 1.5-.3.7-.6-1.3-.5-9.2 4.3-9.2 5.6 0 3.3-21.6 4.7-23.8 1.6-.4-.6-2-1.9-3.5-2.9-2-1.2-2.7-2.4-2.4-3.7.3-1 0-1.7-.5-1.6-.6.1-1.2-.5-1.3-1.3-.2-.8-.6-2.7-1-4.2-.5-1.9-.3-2.8.5-2.8.9 0 .9-.4-.1-1.7-1.2-1.5-1.2-1.6.2-1.1 1.3.5 1.6.2 1.2-1.2-.7-2.5 4.5-8 8.2-8.6 1.7-.3 8.3-1.1 14.8-1.7 10.1-1 12.2-1.5 14.3-3.6 2.6-2.5 3-3.6 1.4-4.6-.6-.3-.7.1-.4.9.3.9.2 1.6-.4 1.6s-.9-1.1-.7-2.5c.1-1.4-.6-3.7-1.7-5.1-3.2-4-6.7-5.3-13.8-4.8-8.9.5-9.9.7-9.3 1.7.3.5-.1.8-.8.6-2.8-.3-4 .1-3.4 1.3.4.7-.1.4-.9-.7-.9-1.1-1.4-2.5-1.1-3.3.2-.7.1-1.1-.4-.8s-1.1 0-1.4-.7c-.3-.8.4-1.9 1.5-2.6s1.7-.8 1.4-.2c-.4.5-.1 1.3.5 1.7.8.4.9.3.5-.4s-.2-1.2.4-1.2.9-.4.6-.9c-.5-.8 4.9-2.6 9.8-3.3 5.6-.8 14.7 0 17.2 1.7M77 324.9c0 2.9-2.7 6.8-3.8 5.6-.3-.3 0-1.1.6-1.7.7-.7 1.2-2.5 1.2-4s.5-2.8 1-2.8c.6 0 1 1.3 1 2.9"/>
    <path d="M27.6 302.3c-1.6 1.2-1.6 1.3.2 1.3 1 0 1.9-.6 1.9-1.3s-.1-1.3-.2-1.3-.9.6-1.9 1.3m7.9 2.6c1.4 1.6 1.5 2.2.5 1.9-.8-.2-1.4.2-1.3.9.2.8-.4 1-1.4.6-1.1-.4-1.4-.3-.9.5.4.7.2 1.2-.3 1.2-.6 0-1.1 2-1.1 4.5s.5 4.5 1.1 4.5c.5 0 .7.4.4 1-.3.5-.3 1 .2 1 .4 0 2.1 1.1 3.7 2.5 3.1 2.6 4.1 3.1 3.1 1.5-.3-.6.3-1 1.4-1s2.3.5 2.7 1.1c.5.8.9.8 1.4-.1.4-.6 2.4-1.2 4.4-1.3 2.1-.1 3.1-.4 2.3-.9s-.6-.8.8-.8c2-.1 6.5-3.2 6.5-4.6 0-.4-1.2.3-2.7 1.7l-2.7 2.4 2.5-3.1c1.3-1.7 2.9-2.9 3.4-2.7.6.2 1-.9.9-2.4-.1-1.6.5-3.8 1.2-5 .8-1.2 1.4-2.6 1.4-3s-.5-.1-1 .7c-.8 1.3-1.1 1.2-2.5-.5-.9-1.1-1.4-1.4-1-.8.3.7.1 1.3-.4 1.3-.6 0-1.1 1.8-1.1 3.9 0 7.5-7.1 12.8-15.7 11.8-5.2-.6-8.3-3.3-8.3-7.2 0-4.2 3.5-5.9 13.8-7 6.5-.7 9.7-1.4 10-2.4.4-1.1-.9-1.2-6.4-.8-3.8.4-8 .8-9.4 1-1.4.3-3.6-.2-5-1.1l-2.5-1.5z"/>
    <path d="M48.3 313.5c0 .8.4 1.2.9.9s.6-1 .3-1.5c-.9-1.3-1.2-1.1-1.2.6m11.7 6.6c0 .5.5.7 1 .4.6-.3 1-.8 1-1.1 0-.2-.4-.4-1-.4-.5 0-1 .5-1 1.1m-4.8 3.5c-.7.8-.8 1.4-.3 1.4 1 0 2.5-1.9 2-2.5-.2-.1-1 .3-1.7 1.1M250 270.1c-2.4 1.1-5.3 2.8-6.3 3.7-1.8 1.6-1.8 1.5-1.2-1.1l.7-2.7H227v63h16v-21c0-23.6.4-25.6 6.4-28.4 6.9-3.2 13.6-1 16.6 5.6 1.7 3.8 2 6.6 2 24V333h14.9l.3-21.3c.3-23.7.8-25.6 7.5-28.3 4.2-1.8 6.7-1.8 10.7.1 6.1 2.9 6.6 4.9 6.6 28.4V333h16v-23.3c0-21.2-.2-23.6-2.1-27.7-3.7-8.2-9.8-12.6-18.9-13.7-7.2-.8-13.5 1.3-18.6 6.1l-4.3 4.1-3.7-3.7c-6.6-6.6-17.7-8.6-26.4-4.7m11.3 1.3c8.2.3 15.9 4.5 12.6 6.8-1.1.7-.9.8.5.4 1-.4 2.5-.1 3.4.6 1.6 1.4 6.4 1.9 5.6.7-.2-.4.5-1.4 1.6-2.2 1.1-.7 1.7-1.7 1.4-2-.6-.6 5.6-3.6 9-4.2 7.5-1.6 14.3.2 19.7 5.2 5.7 5.4 6 6.7 6 30.8v22h-9.6L311 310c-.3-10.7-.7-20.2-1-21s-1.7-2.6-3.2-3.9-2.5-2.8-2.1-3.4c.3-.5.1-.7-.5-.3-.6.3-1.3.2-1.7-.3-.3-.6-1.3-.7-2.2-.4-1.1.4-1.4.3-.9-.5 1.4-2.3-6.9-1.4-10 1-1.5 1.3-2.5 1.8-2.1 1.2.3-.6 0-1.1-.7-1.1s-1.3.7-1.2 1.5-.5 1.7-1.2 1.9c-.7.3-1.2.1-1.1-.4.3-1.7-.1-2.4-1.2-1.8-.7.5-.4 1.4.7 2.6 1.9 2.1.6 2.6-1.6.6-1.2-1-1.2-.9-.1.5.8 1.1 1 2.9.6 4.9-.4 1.7-.8 11-.8 20.7l-.2 17.7-4.7.3c-3.1.2-4.8-.1-4.8-.8 0-.6-.5-.8-1.2-.4-.6.4-.8.3-.5-.3 1.1-1.8 1-37.4-.1-38.5-.6-.6-.8-1.6-.6-2.3.3-.7 0-1.6-.7-2.1-.8-.5-1-.3-.4.7.5.8-.1.6-1.3-.5-1.2-1-1.9-2.2-1.7-2.6.5-.8-6.6-4-9-4-.7 0-2.6.5-4.2 1.2-1.5.6-3.3 1-4 .9-.6-.1-1.5.4-1.9 1-.5.8-.2 1 .7.5.8-.4-.2.7-2.1 2.5l-3.5 3.3-.3 20.8-.3 20.8h-4.5c-3.4 0-4.3-.3-3.8-1.2.5-.8 0-.7-1.1.2-1.7 1.4-1.8 1.3-1.2-.3.4-1 .7-14.1.7-29v-27.2l5.5.3c3 .2 5.3.8 5 1.2-.3.5.5 1.9 1.7 3.2 1.3 1.3 1.6 1.5.8.4-1.4-1.8-1.3-1.9.8-1.4 1.4.4 2 .2 1.5-.5-.4-.7 0-.8 1.1-.4.9.4 1.5.3 1.2-.2-.6-1 4.3-3.5 6.3-3.2.8.1 1-.2.5-1s-.3-1 .5-.4c.7.4 3.6.8 6.4.9"/>
    <path d="M285.6 279.2c.3.5 1 .6 1.5.3 1.3-.9 1.1-1.2-.6-1.2-.8 0-1.2.4-.9.9m-19.1 2.8c1 1.1 2 2 2.3 2s-.3-.9-1.3-2-2-2-2.3-2 .3.9 1.3 2m1.5-1.6c0 .2.6.9 1.4 1.5 1.1.9 1.6.9 2.2 0 .4-.8.3-.9-.4-.5s-1.2.2-1.2-.3c0-.6-.4-1.1-1-1.1-.5 0-1 .2-1 .4m42 1.1c-1 1.2-1.5 1.3-2 .4-.5-.7-1-.8-1.4-.1-1.2 1.9 2.2 2 4 .1.9-1 1.5-1.9 1.2-1.9s-1.1.7-1.8 1.5m-67.5 2.5c.3.5.8 1 1.1 1 .2 0 .4-.5.4-1 0-.6-.5-1-1.1-1-.5 0-.7.4-.4 1m181.4-14.7c-9.7 2.8-17.5 9.1-22.1 18-3.1 6.1-3.7 17.8-1.2 24.8s10 15 17.2 18.6c5 2.5 6.8 2.8 15.2 2.8 8.1 0 10.3-.4 15-2.6 25.9-12.2 25.6-47.6-.5-59.5-6.6-3-17-4-23.6-2.1m20.6 3.6c4.2 1.6 6.8 3.5 5.9 4.4-.3.3 0 .8.7 1.3.8.4 1 .3.5-.4-.8-1.4-.4-1.5 1.8-.6.9.3 1.3 1 1 1.5s.2.9 1 .9c.9 0 1.8 1.1 2.2 2.4.3 1.4 1.2 2.7 2 3 2.3.9 4.6 7.8 4.8 14.6.3 9.7-3.5 19.7-6.9 18.4-1.4-.6-5.8 4.9-4.8 5.9.3.4-.2 1-1.2 1.4-1 .3-2.6 1.4-3.6 2.4-1.1 1.1-2.6 1.6-4.1 1.2-1.8-.4-2-.3-.8.6s1.1 1.1-1 1.1c-1.4 0-4.8.3-7.7.6-3.7.4-6.1.1-8.3-.9-1.7-.9-2.8-1.1-2.5-.6s-.1.6-.9.3c-.9-.3-1.4-1-1.1-1.4.3-.5-.3-.6-1.3-.4-.9.3-2.7-.4-3.9-1.6-1.3-1.1-2.5-2-2.8-2-2.4.1-2.5-.3-.9-2.7 1.7-2.7 1.7-2.7 0-1.3-1.6 1.3-2 1.2-3.6-.7-1-1.2-2.1-1.9-2.5-1.5-.5.4-.5.2-.2-.5.4-.6.1-1.8-.7-2.6-1.1-1.1-1.2-1.7-.3-2.7.8-.9.8-1.1.1-.7-1.5.8-2.9-1-3.8-4.6-.4-1.9-.3-2.6.4-2.2.5.3 1 .1 1-.4 0-.6-.4-1.1-1-1.1-1.9 0-1.1-8.6 1-11 1.1-1.2 1.7-2.6 1.4-3.1-.2-.5.3-2 1.2-3.4s1.4-2.5 1-2.5c-.3 0 1.1-1.6 3.3-3.5 3.9-3.6 5.8-4.5 4.5-2.3-.4.8-.3 1 .2.5s.9-1.3.9-1.9c0-1.5 6.9-5.1 7.3-3.8.2.5 1.1.3 1.9-.6 2-1.9 14.1-1.6 19.8.5m13.5 46.6c0 .7-3.9 4.5-4.5 4.5-.3 0 .2-1.1 1.1-2.5 1.4-2.2 3.4-3.4 3.4-2"/>
    <path d="M430 279.7c-1.4.2-4.1 1.2-6 2.1s-3.8 1.5-4.1 1.4c-.8-.1-3.6 2.8-4.1 4.3-.2.5-.7 1-1.3.9-.5 0-1 1.7-1.1 3.9 0 2.3-.5 4.2-1 4.4-1.8.6-.4 12.3 1.8 14.9 1.1 1.2 2 2.6 2.1 3.1.1 1 3.6 4.8 4.5 4.8.4.1 2.8.9 5.4 1.9 4.3 1.7 8.2 1.8 12.8.3.8-.3 2.5-.8 3.8-1.2 1.2-.4 2.2-1.1 2.2-1.5 0-.5.8-1.1 1.8-1.4 1.1-.4 2.5-1.9 3.3-3.4s2-3.2 2.8-3.8c1.9-1.5 1.7-14.3-.3-18.2-.8-1.6-1.2-3.3-.8-3.7.4-.5.2-.5-.4-.2s-2.1-.7-3.3-2.3c-1.2-1.7-2.8-3-3.6-3-.7 0-1.7-.5-2.1-1.2-.5-.7-.2-.8.7-.3.8.5 1.1.4.6 0-.4-.5-2-.9-3.5-1s-3.8-.5-5.2-.7c-1.4-.3-3.6-.4-5-.1m8.5 3.4c2.2.6 5.6 2.8 7.6 4.8 11.1 11.1 4.4 30.4-11 31.9-6.6.6-11.3-1.2-15.5-5.8-7.1-7.9-6.9-18.7.5-26.1 5.4-5.4 11-6.8 18.4-4.8m-18.5 1.3c0 .2-.8 1-1.7 1.7-1.6 1.3-1.7 1.2-.4-.4s2.1-2.1 2.1-1.3m28 37c0 .2.7.7 1.6 1 .8.3 1.2.2.9-.4-.6-1-2.5-1.4-2.5-.6m36-51.5c-16.8 6-18.3 27-2.4 34.2 2.2 1 8 2.8 12.9 3.9 9.9 2.3 12.5 4 12.5 8.1 0 8.1-17.7 7.4-21.5-.9-.9-2-1.7-2.2-8.7-2.2H469l1 2.5c3 8 7 12.3 14.5 15.6 5.9 2.6 16.4 3.6 22.1 2 14.7-4 21.1-19.5 12.2-29.7-4.1-4.6-6.5-5.8-18.2-8.7-11.1-2.9-14.6-4.8-14.6-8.1 0-8 16.3-7.7 19.3.5 1.1 2.8 1.3 2.9 8.4 2.9 8.3 0 8.7-.5 5.4-7.5-2.3-5-7.4-9.9-12.5-12-6.3-2.6-16.2-2.9-22.6-.6m16.6 1.6c1.6.4 3.4.7 4.1.7.7.1 1.1.6 1 1.2s.5 1.2 1.3 1.2c.8.1 2.1.2 2.8.3.7 0 1.1.5.8 1s.1 1.2 1 1.5c.8.3 1.2 1.1.8 1.7q-.6 1.05.3.6c1.5-1 3.6 2 2.9 3.9-.6 1.5-.4 1.5 1 .3 1.6-1.3 1.6-1.2.5.9-.7 1.3-1.8 2.1-2.4 1.9-.7-.2-2 0-3 .5-1.3.7-2.3.2-4.2-1.8-2.6-2.8-3.4-5.1-1.3-3.8.6.4.8.3.5-.4-.4-.5-1.5-.9-2.5-.8-.9.2-2-.2-2.4-.7-.3-.6-3.3-1.3-6.5-1.5-4.8-.3-6.3-.1-7.8 1.4-1 1.1-2.1 1.9-2.4 1.9s-.5.5-.5 1.2c.1.7-.3 1.1-.9 1-1.6-.3-1.3 4.7.6 7.3.9 1.4 1.7 2 1.7 1.6 0-.5-.8-1.9-1.7-3-1-1.2.3-.2 2.7 2 3.8 3.5 5.6 4.4 11.4 5.4 3.8.7 8.1 1.9 9.5 2.6 1.4.8 3.1 1.4 3.7 1.4.7 0 1.5.7 1.8 1.6s1.2 1.4 1.8 1.2c3.2-1.1 6.1 12 3.7 16.4-.7 1.3-1.3 2.7-1.4 3.1 0 .5-1.1 1.5-2.5 2.2-1.4.8-2 1.4-1.5 1.5.6 0-.3.7-1.8 1.5s-3.5 1.1-4.4.8c-1-.4-1.4-.2-1 .4.9 1.4-10.3 2.3-12 1-.7-.5-1.7-.6-2.3-.2s-2.2-.1-3.7-1c-1.7-1.1-2.3-1.3-1.7-.4.7 1.3-1.3.2-6.8-3.6-1-.6-1.5-1.5-1.2-1.8.4-.4-.1-.9-1-1.3s-2.3-1.9-3.1-3.4l-1.5-2.8 5-.4c4.1-.2 5 0 4.7 1.2-.2.8-.9 1.4-1.6 1.2-.7-.1-1 .2-.6.8.5.8 1.1.7 2.1-.1 1.4-1.1 3-.2 7.4 4.1.3.3 1.1.5 1.8.6 3.9.3 4.3.5 3.6 1.6-.6 1-.4 1 .7.1.7-.7 2.8-1.3 4.6-1.3 2.3 0 4.2-.9 6.5-3.3 3.5-3.4 4.1-5.4 2.1-7.5-.7-.7-1.8-2.1-2.5-3.1-1.4-1.9-7.8-5.4-8.6-4.6-.3.3.1.5.8.5s1.1.2.8.5c-.7.7-3.9-.5-3.4-1.4.2-.3-1-.6-2.7-.7-5-.1-7.8-.9-8.8-2.5-.5-.8-.9-.9-.9-.2 0 .8-.6.8-2.4 0-1.7-.8-2.1-1.5-1.5-2.3s.2-1.1-1.3-1c-1.4 0-2.2-.4-2-1.2.1-.6-.2-1.2-.6-1.2-2.3 0-3.3-7.3-1.8-13.6 1.3-5.8 8.7-10.7 17.1-11.3 2.2-.2 4.2-.5 4.4-.7s.7-.2 1.1.1c.3.2 2 .7 3.6 1"/>
    <path d="M477.4 278.1c-.4.7-.3.9.4.5.5-.3 1.3 0 1.5.6.4.9.6 1 .6.1.1-1.7-1.6-2.5-2.5-1.2m8.7 15.8c-1 .6-.9 1 .3 1.4.8.3 1.8.2 2.1-.3.8-1.3-.9-2-2.4-1.1M506 302c-.8.5-1 1-.5 1 .6 0 1.7-.5 2.5-1s1.1-1 .5-1c-.5 0-1.7.5-2.5 1m9 19c-.9.6-1 1-.3 1 .6 0 1.5-.5 1.8-1 .8-1.2.4-1.2-1.5 0m-17.2 8.7c.7.3 1.6.2 1.9-.1.4-.3-.2-.6-1.3-.5-1.1 0-1.4.3-.6.6M158 291.8c0 25.2.8 29.1 7.2 35.3 8.4 8.1 23.5 9.2 31.8 2.3l3-2.6v6.2h16v-63h-16v20.4c0 19.5-.1 20.4-2.3 23.7-2.7 4.1-6 5.9-10.7 5.9s-8-1.8-10.7-5.9c-2.2-3.3-2.3-4.2-2.3-23.7V270h-16zm13.2-.3c.2 22.3.2 21.9.9 22.5.3.3 1.1 1.8 1.8 3.5l1.1 3-.5-3c-.4-2.1-.2-2.5.4-1.5.5.8.8 1.9.8 2.4-.1.4 2 1.7 4.7 2.8 4.9 1.9 12.9 1.7 14.2-.3.3-.5 1-.7 1.5-.3.5.3.8.2.7-.3-.2-.4.7-1.8 1.9-3 3.5-3.5 4.3-8.6 4.3-27.1V273h10v57h-4.9c-4.1 0-5.1-.4-6.6-2.6-1.3-2.1-1.9-2.3-3.1-1.3-.8.6-1.7.9-2.1.5-.3-.3-.1-.6.5-.6.7 0 1.2-.5 1.2-1.1 0-.8-.5-.8-1.5.1-.8.7-1.5 2-1.5 2.9 0 1.4-.2 1.4-1 .1s-1-1.2-1 .4c0 1.1-.3 1.6-.6 1.3-.4-.3-1.6-.2-2.7.4-1.4.8-1.8.8-1.3 0 .5-.7.1-.9-.8-.5-.9.3-1.4.9-1.1 1.3.2.4-1.9.6-4.7.5-3.5-.1-5.4-.7-6-1.8-.5-.9-1.4-1.6-2.1-1.6s-.6.4.3 1c.8.5 1 1 .4 1-2.5 0-9.3-6.1-11.3-10.2-1.9-4.1-2.1-6-2.1-25.6V273h10zM459 273.3c0 .2.6 1 1.4 1.6 1.1.9 1.6.9 2.2-.1.4-.7.4-1-.1-.6-.4.4-1.4.3-2.2-.3-.7-.6-1.3-.9-1.3-.6"/>
    <path d="M182 314c.8.5 2 1 2.5 1 .6 0 .3-.5-.5-1s-1.9-1-2.5-1c-.5 0-.3.5.5 1m386.6 11.7.2 6.8 6.6.3 6.6.3V319h-13.5zm10.7-3.8c.5.1.7 1.8.5 3.8-.3 3.7-.4 3.8-4.5 4.1l-4.3.3v-4c0-4.1 1-4.9 5.5-4.5 1.1.1 2.4.3 2.8.3"/>
  </g>
</svg>