<svg xmlns="http://www.w3.org/2000/svg" width="430" height="124" fill="none" viewBox="0 0 430 124">
  <path fill="#e50013" fill-rule="evenodd" d="M113.951 0C92.194 0 74.819 17.463 74.557 38.996c-.18 14.78 9.355 23.327 9.764 25.685 1.66 9.534-10.661 9.84-10.661 9.84s8.093 5.162 18.63.493c4.198-1.86 11.408 2.802 21.661 2.98 21.753.38 39.392-17.46 39.392-38.998C153.343 17.46 135.707 0 113.951 0" clip-rule="evenodd"/>
  <path fill="#fefefe" fill-rule="evenodd" d="M85.959 52.246V26.69h3.292v22.295h7.95v3.26zm16.631.034h-3.397l5.955-25.553h2.626l6.024 25.554h-3.433l-1.646-7.143h-4.483zm3.888-16.678-1.47 6.277h2.941zm19.079 3.885q.21.209.281.346 1.505 1.804 1.505 5.27 0 3.503-1.505 5.237-1.577 1.94-4.833 1.94h-4.974V26.728h4.974q3.29 0 4.833 1.942 1.505 1.733 1.505 5.235 0 3.468-1.505 5.27-.07.104-.281.313m-6.234-1.629h1.681q1.12 0 1.61-.259c.327-.175.549-.34.666-.504q.736-.865.736-3.19-.001-1.35-.227-2.131-.229-.78-.632-1.18a1.8 1.8 0 0 0-.963-.502 6.5 6.5 0 0 0-1.19-.104h-1.681zm1.681 11.163q.63 0 1.19-.104a1.8 1.8 0 0 0 .963-.503q.403-.398.632-1.179.226-.78.227-2.132 0-1.386-.246-2.185-.246-.796-.646-1.195a1.84 1.84 0 0 0-.946-.505 6.4 6.4 0 0 0-1.174-.102h-1.681v7.905zm15.125 3.224q-3.082 0-4.658-1.976-1.506-1.837-1.507-5.27v-1.63h3.293V45q0 2.253.806 3.224.175.244.63.503.456.26 1.436.259.946 0 1.506-.4.56-.396.859-.969a3.8 3.8 0 0 0 .385-1.248q.087-.676.088-1.197 0-.901-.28-1.524a3.4 3.4 0 0 0-.735-1.058 4.6 4.6 0 0 0-1.017-.727 17 17 0 0 0-1.121-.54l-.63-.275a27 27 0 0 1-1.42-.678q-.857-.433-1.699-1.23-2.1-2.011-2.101-5.131 0-1.63.438-2.981.439-1.353 1.262-2.307a5.9 5.9 0 0 1 1.961-1.49q1.137-.54 2.504-.54 1.892.002 2.994.66 1.105.66 1.665 1.352 1.506 1.907 1.507 5.306v1.63h-3.328v-1.63q0-1.492-.298-2.323-.3-.834-.753-1.196a1.95 1.95 0 0 0-.946-.435 6 6 0 0 0-.841-.07q-1.017 0-1.576.487-.56.483-.857 1.162-.3.675-.368 1.351-.071.677-.071 1.024-.001.9.281 1.543.28.642.736 1.108.453.469 1.033.799.577.33 1.207.572l.561.242q.489.209 1.35.607.858.399 1.697 1.195 2.173 1.978 2.173 5.097 0 2.949-1.473 4.889-1.716 2.186-4.693 2.185" clip-rule="evenodd"/>
  <path fill="#fff" d="M353.187 88.262c.88 0 2.522.291 5.036.88 2.286.409 3.912.849 4.917 1.17.409.126.668.291.59.527a3 3 0 0 0-.173.7c-.691 4.28-1.116 8.766-1.116 13.503q0 2.72.354 8.067c.236 3.567.353 6.253.353 8.005 0 .935-.408 1.406-1.288 1.516-2.93.236-6.269.354-9.961.354-.683-.032-.809-.424-1.052-2.043-.173-1.343-.354-2.042-.527-2.105-.173.118-.408.354-.699.699-2.694 2.632-5.507 3.92-8.555 3.92-4.627 0-8.436-1.814-11.422-5.381-2.867-3.393-4.218-7.478-4.155-12.16 0-5.381 1.461-9.702 4.454-13.033 2.985-3.448 7.203-5.2 12.537-5.2 3.693 0 6.56 1.288 8.673 3.857.126.15.236.26.353.236.165-.04.354-.582.59-1.697.306-1.398.762-1.815 1.115-1.815zm15.869 1.462c1.288-.118 3.22-.354 5.742-.7 3.692-.817 5.625-1.17 5.743-1.107.471-.055.761.699.879 2.223.118 1.288.291 2.042.589 2.223 0 0 .88-.762 2.868-1.87 2.286-1.225 4.454-1.87 6.559-1.87 1.288 0 1.933.291 1.933.935s-.032 1.58-.173 2.805c-.149 1.288-.236 2.278-.236 2.867v2.632c.055 1.406.055 2.341.055 2.804 0 .935-.534 1.234-1.524 1.344-.526.062-1.052.047-1.877 0-.943-.055-1.579-.173-2.051-.173-1.932 0-3.283.29-3.982.935-.7.581-.998 1.814-.935 3.739-.055.935-.055 2.514 0 4.619 0 2.042 0 3.566.055 4.619 0 .644.086 1.634.173 2.977.086 1.343.055 2.396.055 3.04 0 .527-.322.911-1.116.935-1.115.055-2.867.055-5.216.055s-4.038-.055-5.389-.173c-.817-.118-1.17-.471-1.115-1.107q-.083-2.899 0-8.414v-8.531c-.055-5.49-.59-10.055-1.524-13.676-.055-.173-.055-.291-.055-.409 0-.353.173-.581.526-.699zm55.821 2.042c3.103 3.276 4.682 7.188 4.682 11.752 0 2.396-.762 3.739-2.286 4.093-.236.055-2.639.29-7.266.762-2.813.353-6.913.699-12.42 1.107.291 1.516 1.233 2.687 2.93 3.504 1.406.699 2.985.99 4.745.99 2.05 0 4.187-.433 6.206-1.697.88-.55 1.673-1.116 2.608-1.619.094-.047.212-.047.291.024.487.377 1.256 1.516 2.309 3.472 1.116 2.16 1.697 3.504 1.697 4.093 0 .173-.173.471-.526.88-2.813 3.04-7.322 4.619-13.355 4.619q-8.436.002-13.527-4.91c-3.512-3.276-5.271-7.659-5.216-13.213-.055-5.436 1.524-9.874 4.682-13.268 3.221-3.566 7.557-5.381 12.883-5.381 4.509-.118 8.374 1.516 11.54 4.792zm-7.675 9.592c0-1.462-.557-2.719-1.524-3.74-1.029-1.084-2.223-1.665-3.692-1.697-1.469-.03-2.765.558-3.747 1.815q-1.343 1.722-1.343 4.093c0 .644.353.935.998.99 1.696-.055 4.391-.354 8.083-.935.88-.118 1.233-.291 1.233-.526zm-67.942-.998c-1.289-1.343-2.93-2.043-4.918-2.043s-3.692.645-4.917 1.933c-1.234 1.225-1.878 2.867-1.878 4.91.055 1.932.762 3.566 2.05 4.909 1.289 1.344 2.868 2.043 4.745 2.043 1.995 0 3.629-.644 4.863-1.933 1.288-1.288 1.932-2.977 1.932-5.027 0-1.933-.589-3.567-1.877-4.792M61.44 90.077c.472-.236 1.407-.409 2.868-.526 1.697-.173 2.75-.291 3.048-.354.29-.055 1.233-.29 2.867-.762 1.053-.353 1.995-.526 2.75-.526.408 0 .644.817.699 2.45q.082 2.452.353 2.452c.236-.118.526-.291.88-.527 2.05-1.634 3.692-2.75 4.918-3.33 1.814-.935 3.81-1.344 5.86-1.344 2.168 0 4.1.472 5.797 1.462 1.878 1.052 3.103 2.631 3.747 4.618 1.17-1.696 2.867-3.157 5.098-4.328 2.169-1.108 4.274-1.697 6.387-1.697 3.048 0 5.625.762 7.612 2.223 2.223 1.58 3.339 3.858 3.339 6.898 0 1.17 0 3.04-.055 5.608q-.175 3.771-.173 5.609c0 1.461.055 3.685.173 6.662.055 2.922.055 5.145.055 6.661 0 .88-.354 1.344-.998 1.461-.762.055-2.522.055-5.271.055s-4.682-.055-5.389-.172c-.699-.118-.998-.7-.998-1.697 0-1.053 0-2.687.055-4.855.055-2.16.055-3.739.055-4.737 0-4.21 0-7.188-.055-8.939-.172-2.805-1.524-4.148-3.982-4.093-1.053 0-2.121.518-3.221 1.461s-1.76 1.87-1.878 3.04c-.117.935-.117 3.857-.055 8.594 0 1.053.032 2.749.055 5.028.024 2.278 0 3.919 0 5.082 0 .762-.29 1.108-.934 1.108h-10.66c-.7 0-.998-.472-.998-1.461 0-1.108 0-2.805.055-5.028s.055-3.739.055-4.855c0-.934-.055-2.223-.055-3.975v-3.919c0-3.394-1.288-5.083-3.81-5.083-1.053-.055-2.223.354-3.394 1.17-1.288.88-1.932 1.752-1.932 2.75-.055 2.16-.055 5.381 0 9.584v9.466c0 .581.016.927-.142 1.115-.157.189-.502.244-1.091.291-.998.078-2.695.055-4.918.055a81 81 0 0 1-5.035-.173c-.59-.055-.786-.11-.927-.259-.173-.181-.244-.503-.244-1.084v-16.772c0-3.92-.236-8.303-.762-13.095-.102-.896-.165-1.147.236-1.343zm71.753-1.642c1.116-.338 2.05-.589 2.812-.526.566.047.676.817.699 2.45.024 1.635.055 2.452.236 2.452.236-.118.526-.291.88-.527 2.105-1.634 3.81-2.75 5.035-3.33 1.76-.935 3.747-1.344 5.861-1.344s4.037.472 5.797 1.462c1.877 1.052 3.103 2.631 3.747 4.618 1.171-1.696 2.867-3.157 5.098-4.328 2.168-1.108 4.274-1.697 6.387-1.697 3.048 0 5.562.762 7.494 2.223 2.223 1.58 3.339 3.858 3.339 6.898 0 1.17 0 3.04-.055 5.608-.055 2.514-.055 4.384-.055 5.609 0 1.461 0 3.685.055 6.662.055 2.922.055 5.145.055 6.661 0 .88-.354 1.344-.998 1.461-.762.055-2.459.055-5.216.055s-4.682-.055-5.389-.172c-.762-.118-1.053-.7-.998-1.697 0-1.053 0-2.687.055-4.855.055-2.16.157-3.739.173-4.737.094-4.21-.118-7.188-.235-8.939-.118-2.805-1.407-4.148-3.928-4.093-1.116 0-2.286.471-3.394 1.461-1.052.88-1.642 1.87-1.697 3.04-.117.935-.172 3.857-.172 8.594 0 1.053.172 8.94.172 10.11 0 .762-.29 1.108-.934 1.108h-10.715c-.645 0-.849-.464-.88-1.461a87 87 0 0 1 0-5.028c.055-2.16.094-3.739.055-4.855-.032-.934-.118-7.015-.055-7.887 0-3.393-1.289-5.082-3.81-5.082-1.053-.055-2.223.353-3.394 1.17-1.288.88-1.932 1.752-1.932 2.75v19.057c0 .582.023.998-.173 1.171-.157.141-.526.188-.998.235-1.107.103-2.867.055-5.098.055-1.461 0-3.166-.055-5.035-.172-.59-.055-.935-.118-.998-.236-.118-.173-.086-.526-.055-1.108.094-1.806 0-4.619 0-8.358V104.5c0-3.92-.024-8.327-.762-13.096-.047-.29-.047-.47-.055-.58-.031-.41.055-.645.409-.763q.79-.35 2.985-.526c1.696-.173 2.71-.314 3.04-.377.275-.055 1.005-.244 2.639-.73zm83.049 3.92c3.283 3.276 4.917 7.596 4.917 12.915s-1.641 9.701-4.862 13.032c-3.339 3.331-7.675 5.027-13.064 5.082-5.153 0-9.427-1.696-12.765-5.027-3.339-3.276-4.981-7.479-4.918-12.569 0-5.491 1.579-9.937 4.745-13.268 3.166-3.394 7.494-5.082 12.946-5.082 5.389-.056 9.662 1.578 13.001 4.91zm15.703-19.992q3.783-.354 6.151-.354c.408 0 .746.314.699 1.108a1457 1457 0 0 0-.408 7.305c-.087 2.287-.236 5.437-.236 9.53 0 .698.173 1.052.589 1.107.236 0 .471-.055.699-.236 2.051-2.278 4.8-3.393 8.256-3.393 5.099 0 9.136 1.751 12.012 5.263 2.694 3.158 3.982 7.423 3.982 12.742 0 4.854-1.406 9.002-4.155 12.333-3.048 3.503-7.031 5.263-11.831 5.263-3.511 0-6.575-.801-8.554-2.977-.197-.22-.291-.354-.409-.354-.236 0-.408.472-.589 1.344-.236.934-.306 1.382-.762 1.461-.409.117-3.747.172-10.071.235-1.461-.055-2.223-.353-2.223-.934 0-.055 0-.236.055-.527.471-3.739.699-10.809.699-21.273 0-10.463-.353-18.759-.998-26.127l-.054-.409c0-.408.353-.581 1.115-.581.353 0 2.404-.173 6.033-.526m36.78 16.78c.699-.056 1.759 0 3.165.172 1.289.118 2.286.173 2.986.236q.967.002 2.985-.173c1.406-.118 2.458-.173 3.165-.173.59 0 .88.236.88.7v.698c-.589 4.557-.88 9.82-.88 15.837 0 1.752.055 4.383.055 7.832.055 3.331.118 5.845.173 7.596 0 .472-.29.762-.935.88-.816.118-2.576.173-5.388.173-2.813 0-4.682-.055-5.444-.173-.55-.094-.762-.181-.88-.424-.087-.173-.118-.448-.118-1.092 0-1.579.055-3.975.055-7.251.055-3.33.118-5.844.173-7.478-.055-6.607-.354-11.925-.88-15.837-.055-.408-.055-.644-.055-.699 0-.581.354-.817.935-.817zm18.492-15.139c.047-.589.424-.88 1.013-.88h12.537c.637 0 .967.315.912.896-.016.142-.032.566-.032.566-.699 10.11-1.052 19.057-1.052 26.889 0 6.371.055 11.281.055 14.729 0 .582 0 1.517.055 2.805.055 1.17.117 2.105.172 2.804-.055.472-.353.762-.934.88-1.053.173-2.93.236-5.625.236-2.93 0-4.745-.055-5.562-.236-.526-.118-.817-.408-.879-.935v-1.516c0-2.105 0-5.2.055-9.348.055-4.21.117-7.306.172-9.348V88.042c-.055-5.145-.455-9.576-.879-13.323-.048-.4-.032-.557-.016-.699zm26.842 15.547c.699.031 1.697-.055 3.048-.173s2.404-.173 3.048-.173q.882.002.88.7c0 .054 0 .29-.055.698-.527 4.557-.762 9.82-.762 15.837 0 1.752.055 4.383.173 7.832.055 3.331.055 5.845.055 7.596 0 .472-.291.762-.935.88-.817.118-2.577.173-5.389.173s-4.69-.031-5.444-.173c-.534-.102-.809-.173-.935-.408-.063-.118-.055-.472-.055-1.108 0-1.579.055-3.975.173-7.251.055-3.33.055-5.844.055-7.478-.055-6.607-.353-11.925-.88-15.837-.055-.408-.063-.636-.047-.723.063-.479.283-.738.927-.738.699-.055 1.689.063 3.048.173s2.459.15 3.103.173zm-69.639 22.561c1.995 0 3.574-.699 4.744-2.043 1.053-1.288 1.642-2.977 1.642-5.027 0-1.933-.589-3.567-1.814-4.91s-2.813-1.987-4.682-1.932c-1.996-.055-3.575.58-4.682 1.932-1.116 1.288-1.697 2.977-1.642 5.028-.055 2.042.471 3.739 1.642 5.027s2.812 1.933 4.8 1.933zm-36.552-11.689c-1.171-1.461-2.695-2.16-4.509-2.106-1.878-.055-3.394.645-4.627 2.106-1.116 1.343-1.697 2.977-1.697 4.854s.589 3.567 1.697 4.91c1.17 1.406 2.749 2.16 4.627 2.223 1.814-.055 3.338-.817 4.509-2.223 1.115-1.343 1.759-2.977 1.814-4.91-.055-1.869-.644-3.448-1.814-4.854m66.557-17.555A7.935 7.935 0 1 0 274.424 67a7.935 7.935 0 0 0 .001 15.87m40.073-.002a7.934 7.934 0 1 0 0-15.868 7.934 7.934 0 0 0 0 15.868"/>
  <path fill="#fff" d="M67.338 80.735C56.756 70.79 41.006 54.097 33.897 44.969 26.78 54.105 11.029 70.789.456 80.735c-.142.133-.456.432-.456 1.06 0 .802.652 1.454 1.453 1.454h8.374c.055.471.118.934.173 1.46 1.461 12.271 4.454 36.757 4.454 36.757.087.707.62 1.296 1.351 1.296h10.527v-20.574a.63.63 0 0 0-.629-.628h-1.147a2.17 2.17 0 0 1-2.168-2.294c.063-1.178 1.116-2.058 2.294-2.058h18.453c1.178 0 2.23.88 2.294 2.058a2.18 2.18 0 0 1-2.169 2.294h-1.79a.63.63 0 0 0-.629.628v20.574h11.17c.731 0 1.257-.589 1.352-1.296 0 0 2.985-24.478 4.454-36.756.055-.526.118-.99.173-1.461h8.374c.8 0 1.453-.652 1.453-1.454 0-.62-.322-.927-.456-1.06zm-36.395 9.78a3.336 3.336 0 0 1-3.339-3.338 3.336 3.336 0 0 1 3.339-3.34 3.336 3.336 0 0 1 3.339 3.34 3.336 3.336 0 0 1-3.339 3.338m6.489 4.352a2.14 2.14 0 0 1-2.137-2.137c0-1.178.958-2.136 2.137-2.136 1.178 0 2.136.958 2.136 2.136a2.14 2.14 0 0 1-2.136 2.137m-3.535-13.59a8.02 8.02 0 0 1-8.02-8.02 8.02 8.02 0 0 1 8.02-8.021 8.02 8.02 0 0 1 8.02 8.02 8.02 8.02 0 0 1-8.02 8.02"/>
</svg>