<svg xmlns="http://www.w3.org/2000/svg" width="235" height="48" fill="none" viewBox="0 0 235 48">
  <path d="M54.208 20.424V.047h2.826v8.6l7.134-8.6h3.658l-8.014 9.707 8.057 10.67h-3.567l-6.345-8.42-.927 1.103v7.313h-2.826zm27.16 0-3.936-8.785h-3.796v8.785H70.81V.047l10.423.047q2.824.598 3.15 3.173l.092.736h-.048v3.68h.048l-.091.736q-.328 2.575-3.151 3.173l-.694.047 3.936 8.785zM80.44 8.832l.416-.09q.463-.184.65-.646l.092-.413v-3.68l-.092-.413a1.13 1.13 0 0 0-.65-.646l-.416-.047V2.85h-6.808v5.979h6.808zm20.633 11.592h-2.874v-5.062h-7.966v5.062h-2.825v-6.026L92.873 0h2.778l5.418 14.398v6.026zm-3.706-7.864-3.15-8.325-3.104 8.325zm12.06 7.864V2.854h-5.418V.047h13.665v2.807h-5.417v17.57zm11.18 0V.047h13.665v2.807h-10.839v5.978h7.966v2.807h-7.966v5.979h10.839v2.806zm20.628 0-.788-.09q-1.159-.137-2.061-1.06-.903-.919-1.134-2.07l-.047-.783.047-13.201q.231-1.151 1.134-2.07c.602-.615 1.288-.965 2.061-1.06l.788-.09v.047h5.604V0l.789.09q1.158.137 2.061 1.06.903.919 1.133 2.07l.048.783-.048 13.201c-.154.768-.535 1.457-1.133 2.07-.603.615-1.288.965-2.061 1.06l-.789.09v-.047h-5.604zm5.604-2.854.464-.09q.464-.184.65-.598l.048-.46h.047V4.001h-.047l-.048-.412a1.13 1.13 0 0 0-.65-.646l-.464-.09h-5.604l-.463.09q-.418.184-.65.646l-.048.413h-.047V16.42h.047l.048.46q.232.462.65.599l.463.09zM54.513 48V27.588l10.44.047q1.16.23 2.088 1.13.928.898 1.066 2.05l.095.784h-.047v3.64h.047l-.095.736q-.138 1.153-1.066 2.051t-2.089 1.13l-.697.047v.047h-6.912v8.754h-2.83zm9.65-11.611.417-.09c.372-.123.586-.34.65-.646l.091-.414V31.6l-.091-.461a1.13 1.13 0 0 0-.65-.646l-.416-.047v-.047h-6.82v5.99zM70.707 48V27.588h2.83V45.19h10.859V48zm29.831 0H97.66v-5.07h-7.98V48h-2.83v-6.038l5.477-14.425h2.782l5.43 14.425zm-3.714-7.88-3.154-8.34-3.108 8.34zM109.308 48V30.398h-5.429v-2.81h13.688v2.81h-5.429V48zm11.089 0V27.588h13.689v2.81h-10.859v5.99h7.981V39.2h-7.981V48zm19.951 0-.789-.09c-.773-.095-1.463-.445-2.065-1.06q-.904-.92-1.137-2.074l-.048-.783.048-13.225q.233-1.152 1.137-2.074t2.065-1.06l.789-.093v.047h5.615v-.047l.789.094q1.16.137 2.065 1.059t1.137 2.074l.048.783-.048 13.225q-.232 1.152-1.137 2.075-.905.922-2.065 1.059l-.789.09v-.047h-5.615zm5.615-2.858.464-.09q.464-.184.65-.598l.048-.46h.047V31.55h-.047l-.048-.413a1.13 1.13 0 0 0-.65-.646l-.464-.094h-5.615l-.464.095q-.418.184-.65.645l-.048.413h-.047v12.442h.047l.048.46q.232.462.65.599l.464.09zM164.012 48l-3.944-8.801h-3.804V48h-2.83V27.588l10.439.047q2.83.6 3.155 3.18l.095.736h-.048v3.688h.048l-.095.736q-.326 2.58-3.155 3.18l-.697.048 3.943 8.8h-3.107zm-.928-11.611.417-.09q.465-.186.649-.646l.092-.414v-3.688l-.092-.413a1.12 1.12 0 0 0-.649-.646l-.417-.047v-.047h-6.82v5.99zM181.458 48V36.25l-3.991 11.565-3.991-11.564V48h-2.83V27.588h2.83l3.991 11.52 3.991-11.52h2.877V48zm10.53 0-.789-.09c-.773-.095-1.462-.445-2.065-1.06q-.904-.92-1.137-2.074l-.048-.783.048-13.225q.232-1.152 1.137-2.074t2.065-1.06l.789-.093v.047h5.616v-.047l.788.094q1.16.137 2.065 1.059.904.922 1.137 2.074l.048.783-.048 13.225q-.233 1.152-1.137 2.075-.904.922-2.065 1.059l-.788.09v-.047h-5.616zm5.616-2.858.463-.09q.464-.184.65-.598l.048-.46h.047V31.55h-.047l-.048-.413a1.13 1.13 0 0 0-.65-.646l-.463-.094h-5.616l-.464.095q-.417.184-.65.645l-.048.413h-.047v12.442h.047l.048.46q.233.462.65.599l.464.09zm7.47 2.858V27.588l10.439.047q1.16.23 2.089 1.13.928.898 1.066 2.05l.095.784h-.048v3.64h.048l-.095.736q-.138 1.153-1.066 2.051t-2.089 1.13l-.697.047v.047h-6.912v8.754h-2.83zm9.651-11.611.416-.09q.556-.186.65-.646l.091-.414V31.6l-.091-.461a1.13 1.13 0 0 0-.65-.646l-.416-.047v-.047h-6.821v5.99zM225.35 48l-.789-.09q-2.645-.324-3.202-3.134l-.048-.783v-.83h2.83v.83h.048l.047.46q.234.462.65.599l.464.09h5.616l.463-.09q.418-.14.65-.598l.048-.46h.047v-3.642h-.047l-.048-.413q-.232-.461-.65-.645l-.463-.095v-.047l-6.405-.047a3.97 3.97 0 0 1-2.089-1.106 3.9 3.9 0 0 1-1.113-2.075l-.048-.736v-3.64l.048-.784q.232-1.152 1.137-2.074t2.065-1.059l.789-.094v.047h5.616v-.047l.788.094q1.16.137 2.065 1.059.904.922 1.137 2.074l.048.783v.693h-2.83v-.693h-.047l-.048-.413a1.13 1.13 0 0 0-.65-.645l-.463-.095h-5.616l-.464.095q-.416.136-.65.645l-.047.413h-.048v3.641h.048l.047.413q.186.462.65.646l.464.09h5.707l.697.095q1.16.136 2.065 1.059.904.922 1.137 2.074l.048.783v3.641l-.048.784q-.605 2.808-3.202 3.133l-.788.09h-5.616zM0 .177v47.626h47.954V.177zM45.624 45.49H22.915l1.225-10.132h5.398l4.922-3.936L21.243 21.24V10.785L8.002 23.71l10.625 11.646h1.38L18.78 45.49h-4l.76-6.298L4.519 27.108 2.33 29.245V2.495h43.294v42.998z" fill="#fff"/>
</svg>