<svg xmlns="http://www.w3.org/2000/svg" fill="none" viewBox="0 0 960 163" class="h-[40px]">
  <g fill="#fff">
    <path d="M63.709.026c35.185 0 63.709 28.523 63.709 63.708 0 6.321-.922 12.427-2.636 18.19.334-1.133.635-2.28.911-3.437a12.6 12.6 0 0 0-6.768-1.987 12.751 12.751 0 0 0-10.791 19.47c1.6 2.58 4.07 4.504 6.963 5.426a64 64 0 0 1-9.346 10.204 12.7 12.7 0 0 0-10.054-9.412V76.282a12.75 12.75 0 1 0-4.5 0v25.89a12.72 12.72 0 0 0-10.079 15.789 12.73 12.73 0 0 0 3.53 5.959 63.6 63.6 0 0 1-20.939 3.523C28.524 127.443 0 98.92 0 63.734 0 28.55 28.524.026 63.709.026M93.356 106.42a8.25 8.25 0 0 1 8.337 8.297c0 .065-.017.12-.02.183a63.6 63.6 0 0 1-12.082 7.065 8.25 8.25 0 0 1-4.395-7.072 8.26 8.26 0 0 1 4.008-7.3 8.25 8.25 0 0 1 4.152-1.173M71.763 26.082a12.75 12.75 0 1 0-6.058 24.715v25.89a12.75 12.75 0 1 0 4.5 0V50.783A12.75 12.75 0 0 0 80.491 40.5h25.905a12.716 12.716 0 0 0 13.442 10.474 12.7 12.7 0 0 0 5.855-1.924 63 63 0 0 0-1.286-4.67 8.22 8.22 0 0 1-10.622.354 8.226 8.226 0 0 1 .468-13.243 8.2 8.2 0 0 1 3.565-1.36 63 63 0 0 0-2.692-3.986 12.72 12.72 0 0 0-8.733 9.874H80.487a12.75 12.75 0 0 0-8.724-9.937M67.959 81a8.25 8.25 0 1 1 0 16.5 8.25 8.25 0 0 1 0-16.5m47.593.715a8.21 8.21 0 0 1 8.856 1.42 63.4 63.4 0 0 1-6.588 14.24 8.25 8.25 0 0 1-7.141-8.125 8.22 8.22 0 0 1 4.873-7.535M42.474 53.13a10.62 10.62 0 0 0-9.812 6.555 10.62 10.62 0 1 0 9.812-6.555m47.812 2.998a8.25 8.25 0 1 1 6.315 15.245 8.25 8.25 0 0 1-6.315-15.245m-49.01 1.615a6.125 6.125 0 0 1 7.318 6.007h.004a6.133 6.133 0 0 1-6.128 6.123 6.124 6.124 0 0 1-1.195-12.13m25.073-27.558a8.25 8.25 0 0 1 9.86 8.091l-.004-.026a8.25 8.25 0 0 1-8.246 8.276 8.252 8.252 0 0 1-8.092-9.86 8.25 8.25 0 0 1 6.482-6.481M84.647 3.577a12.72 12.72 0 0 0-3.86 10.68 12.712 12.712 0 0 0 24.953 1.636 64 64 0 0 0-4.073-3.312c.004.067.022.131.022.202a8.23 8.23 0 1 1-12.1-7.249 63 63 0 0 0-4.942-1.957M232.361 69.393a20.25 20.25 0 0 0 9.057-7.009 17.9 17.9 0 0 0 3.412-10.74 19.2 19.2 0 0 0-1.639-8.01 18.3 18.3 0 0 0-4.548-6.232 21 21 0 0 0-6.964-4.054 26.1 26.1 0 0 0-8.873-1.455h-31.125V43.27h29.944q4.46 0 7.125 2.367 2.667 2.366 2.685 6.191 0 3.817-2.685 6.188t-7.125 2.358h-29.947v35.25h13.196V71.25h14.381l12.469 24.375h14.745zM326.108 31.894h-48.967V43.36h48.967zM290.341 84.138V69.03h23.572V57.927h-36.772v37.68h49.331V84.138zM415.077 51.281a31.1 31.1 0 0 0-7.099-10.192 33 33 0 0 0-10.694-6.75 35.8 35.8 0 0 0-13.283-2.445H359.51v11.74h24.375c2.702-.017 5.38.51 7.875 1.55a19.53 19.53 0 0 1 10.695 10.74 20.7 20.7 0 0 1 1.548 8.01 19.8 19.8 0 0 1-1.548 7.826 19.4 19.4 0 0 1-4.279 6.326 20.34 20.34 0 0 1-14.288 5.779H372.71V57.926h-13.2v37.699h24.491c4.546.033 9.056-.8 13.29-2.456a33.5 33.5 0 0 0 10.695-6.69 30.9 30.9 0 0 0 7.099-10.058 30.3 30.3 0 0 0 2.591-12.469 31.2 31.2 0 0 0-2.599-12.67M475.328 83.186c-.427-.146-.859-.285-1.275-.457a20.7 20.7 0 0 1-6.551-4.324 19.7 19.7 0 0 1-4.376-6.51 20.7 20.7 0 0 1-1.594-8.145 21.5 21.5 0 0 1 1.545-8.25 20.1 20.1 0 0 1 4.279-6.551 19.9 19.9 0 0 1 6.506-4.369c.48-.203.967-.375 1.459-.529V31.5a34.6 34.6 0 0 0-17.52 8.869 33 33 0 0 0-7.238 36.319 31.5 31.5 0 0 0 7.125 10.372 34.4 34.4 0 0 0 17.625 8.88zM488.523 44.036c1.045.32 2.064.719 3.049 1.193a23.2 23.2 0 0 1 7.927 6.416l8.922-8.827q-4.467-5.46-11.659-8.693a36.8 36.8 0 0 0-8.25-2.576zM491.664 82.226a21.5 21.5 0 0 1-3.143 1.178v12.442a36 36 0 0 0 7.92-2.516 32.5 32.5 0 0 0 11.625-8.554l-8.647-8.557a23.7 23.7 0 0 1-7.755 6.007M825.508 83.434c-.472-.165-.948-.326-1.41-.525a19.5 19.5 0 0 1-6.375-4.369 20.4 20.4 0 0 1-4.233-6.6 22.6 22.6 0 0 1 0-16.429 20.5 20.5 0 0 1 4.233-6.551 19.6 19.6 0 0 1 6.375-4.369 14 14 0 0 1 1.41-.521V31.5a33.8 33.8 0 0 0-17.336 8.91 32.9 32.9 0 0 0-7.147 10.466 32.76 32.76 0 0 0 0 25.755 32.44 32.44 0 0 0 17.838 17.43 33.4 33.4 0 0 0 6.645 1.946zM863.193 50.873a32.46 32.46 0 0 0-17.839-17.43 33.4 33.4 0 0 0-6.645-1.943v12.593c.457.153.915.307 1.365.498a19.5 19.5 0 0 1 6.416 4.369 20.6 20.6 0 0 1 4.234 6.54 22.6 22.6 0 0 1 0 16.429 20.4 20.4 0 0 1-4.234 6.6 19.4 19.4 0 0 1-6.416 4.368c-.45.192-.908.346-1.365.503V96a33.4 33.4 0 0 0 6.645-1.942 32.43 32.43 0 0 0 17.839-17.43 32.78 32.78 0 0 0 0-25.755M670.421 69.394a20.25 20.25 0 0 0 9.056-7.01 17.93 17.93 0 0 0 3.412-10.74 19.3 19.3 0 0 0-1.638-8.01 18.3 18.3 0 0 0-4.553-6.232 21 21 0 0 0-6.949-4.053 26.1 26.1 0 0 0-8.876-1.455h-31.125V43.27h29.947q4.455 0 7.125 2.366t2.685 6.191q0 3.818-2.685 6.188t-7.125 2.366h-29.947v35.243h13.2V71.25h14.381l12.469 24.375h14.745zM766.166 68.711a18.8 18.8 0 0 0-7.279-5.962A17.25 17.25 0 0 0 764.625 57a14.5 14.5 0 0 0 2.092-7.646q0-7.732-6-12.604t-15.563-4.875h-29.955v10.924h29.123q4.188 0 6.75 2.047a7.22 7.22 0 0 1 2.547 5.505 7.22 7.22 0 0 1-2.547 5.505q-2.555 2.055-6.75 2.051h-29.123v37.718h31.399q10.012 0 16.155-5.096 6.143-5.097 6.147-13.38a14.02 14.02 0 0 0-2.734-8.438m-13.287 13.744q-2.73 2.228-7.282 2.25h-17.201V68.209h17.201q4.549 0 7.282 2.276a7.34 7.34 0 0 1 2.73 5.918q.015 3.82-2.73 6.052M563.814 68.303h-19.229l-11.231 27.303h13.739l6.555-16.747h14.216zM574.85 31.894h-12.889l24.45 63.712h14.287zM960 95.625h-16.534l-32.49-42.596v42.596H898.5V31.894h12.562zm-4.875-63.713H942.75v12.375h12.375z"/>
  </g>
</svg>