<svg xmlns="http://www.w3.org/2000/svg" width="341.333" height="341.333" preserveAspectRatio="xMidYMid meet" viewBox="0 0 256 256">
  <g fill="#fff" stroke="none">
    <path d="M199.7 38c-5.3 2-21.3 13.6-28.9 20.8l-4.6 4.4-6.9-2c-3.7-1.1-9.5-2.6-12.8-3.2-16-2.9-43.7-2.1-59 1.7l-7 1.8-4.8-6c-2.7-3.3-7.6-8.8-10.9-12.3-8.7-9-9.1-8.9-23.7 5.5-18 17.8-25.8 31.6-32.3 56.3-3.9 15.1-4.9 35.2-2.4 48.1 5.5 28 26.6 48.6 61.9 60.4 14.7 4.9 24.3 5.9 54.2 5.9 61.8 0 89-7.6 104.8-29.2 8.1-10.9 16.5-31.9 18.8-46.1 4.1-27-14.2-83.6-33.9-104.4-4.1-4.2-5.7-4.4-12.5-1.7M58 40.7c0 .5-1.6.8-3.5.9-2.2 0-3.1-.3-2.3-.8 1.6-1 5.8-1 5.8-.1m152.4 1.4c.7 1 1.6 1.6 2 1.1.4-.4.6-.2.4.3-.1.6.6 2.1 1.8 3.3 1.1 1.2 2.7 3.5 3.4 5 .8 1.5 2.5 4.2 3.8 6 1.3 1.7 2 3.7 1.6 4.4s-.3.8.4.4 1.2-.1 1.2.8c0 2.4-1.7 1.9-3.2-.8-.7-1.4-2.4-4.5-3.7-7s-2.8-4.3-3.2-4c-.5.3-.6-.3-.2-1.3.3-1 .3-1.5-.2-1.1-.4.4-1.7-.7-2.9-2.5-3.2-4.7-6.2-5.9-10.5-4.1l-3.6 1.4 2.4-1.9c3.2-2.5 8.7-2.5 10.5 0m-149.1.2c.7-.3.9-.3.5.2-.4.4.3 1.6 1.5 2.6 2.8 2.3 1.6 2.4-2.1.1-1.8-1-2.7-2.3-2.4-3.2.4-1.1.7-1.1 1-.2.2.6.9.9 1.5.5m.4 6.9C71.6 59.5 77 65.6 77 66.7c0 .5-2.8 1.8-6.2 2.8-19.4 5.7-37.8 17.9-47.6 31.4-4.9 6.7-3.8 6.9 1.6.4 6.8-8.1 14.4-14.7 22.1-19.3 31.6-18.4 77.5-24.5 111.6-14.8 11.8 3.3 32.4 12.8 44.6 20.4 6.7 4.2 15.4 12 17.4 15.7 2.1 4.1 3.5 4.8 3.2 1.8 0-1.1-.5-1.7-.9-1.5-.4.3-.8.1-.8-.4 0-1.8-11.1-12.1-17.9-16.6-6.8-4.6-30.8-16.6-33-16.6-.6 0-1.1-.4-1.1-.8 0-1.1 9.3-10 16.4-15.6 5.5-4.4 16.3-10.6 18.4-10.6 1.7 0 12 14.5 16.6 23.1 15.5 29.4 20.4 70.7 11.6 98.1-11.9 37.2-38.7 49.8-105.9 49.8-46.8 0-65.6-5.1-92.2-25.2-17.3-13-23-26.1-23-53.3 0-25.9 5.6-45.5 18.6-65C35.7 62.7 53.2 43 54.9 43c.4 0 3.4 2.8 6.8 6.2m6.7 2.7c-.3.3-1-.2-1.5-1.2-.6-.9-1.5-1.4-2.1-1.1-.7.5-.8.2-.4-.5.6-.9 1.3-.8 2.7.5 1.1.9 1.7 2 1.3 2.3m113.4 1.5c-1 .7-1.4 1.7-1 2.1.4.5.1.5-.7 0-1.2-.7-1.1-1 .4-2.2 2.4-1.7 3.6-1.7 1.3.1m-111 2.1c-.3.3-.9-.2-1.2-1.2-.6-1.4-.5-1.5.5-.6.7.7 1 1.5.7 1.8m-33.7 1.8c-1 .9-1.1.8-.5-.6.3-1 .9-1.5 1.2-1.2s0 1.1-.7 1.8M177 58.6c0 .8-.4 1.3-.9 1s-1.9.8-3.2 2.5c-3.8 4.9-5 6-6 5.3-.8-.5 8.6-10.4 9.9-10.4.1 0 .2.7.2 1.6M75.8 60.5c.6 1.4 1 2.5.8 2.5s-1.1-1.1-2-2.5-1.3-2.5-.8-2.5 1.4 1.1 2 2.5m29.9-.2c0 .8-.6 1.4-1.4 1.4-.9 0-1-.4-.2-1.4.6-.7 1.2-1.3 1.4-1.3.1 0 .2.6.2 1.3m7.2-.4c1 .7.7.9-1.2.8-1.5-.1-2.7-.5-2.7-1 0-1 2.2-.9 3.9.2m19.4-.2c-.7.2-2.1.2-3 0-1-.3-.4-.5 1.2-.5 1.7 0 2.4.2 1.8.5m9.1 2.2c-.2.3-1.2-.3-2.2-1.3-1.6-1.7-1.6-1.8.5-.5 1.2.7 2 1.5 1.7 1.8m-44.3-.4c0 1.3-4.1 1.9-4.1.6 0-.6.7-.7 1.7-.4 1.2.5 1.4.3.8-.7-.5-.8-.3-1.1.4-.9.7.3 1.2.9 1.2 1.4m48.6.1c-.3.3-1.2.4-1.9.1-.8-.3-.5-.6.6-.6 1.1-.1 1.7.2 1.3.5M28.2 69.5C26.4 72 25 74.5 25 75c0 1.4-1.7 1.2-2.6-.2-.4-.6-.3-.8.3-.5.5.4 1.6-.6 2.4-2.1s2.2-3.6 3.2-4.6c.9-1.1 1.7-2.4 1.7-3 0-.5.3-.6.7-.3.4.4-.8 2.8-2.5 5.2m55.1-4.8c.3.5-.5.8-1.8.8s-2.1-.3-1.8-.8c.2-.4 1-.7 1.8-.7s1.6.3 1.8.7m143.2 3.7c0 .9.6 2.1 1.4 2.5 1 .7 1.1 1.3.1 2.7-.9 1.5-1 1.5-.6.2.2-.9-.2-2.2-.9-2.8-.8-.7-1.2-1.7-.9-2.2.4-.6 0-1.5-.7-2-1.2-.8-1.1-.9.1-.5.8.2 1.5 1.1 1.5 2.1m8 18.9c.9 1.6 1 2.5.4 2.1-.7-.4-1-.1-.7.7s.9 1.3 1.4 1.2.9 1.5 1 3.5c0 2 .6 3.8 1.2 4s.8 1 .5 1.9c-.3.8-.1 1.8.6 2.2 1 .7 1.7 4.3 2 10.4 0 1.6.5 2.6 1 2.3.5-.4.7 1.2.4 3.6-.4 2.3-.2 3.9.3 3.6.5-.4.9 4.8.9 12.2 0 7.1-.4 12.3-.8 11.7-.5-.7-.6-.1-.3 1.5.3 1.5.1 3-.5 3.3-.6.4-.8 1.4-.5 2.2.4.9.2 1.1-.6.7-.7-.5-.9 0-.6 1.4.4 1.4.2 2.2-.7 2.2-.7 0-1.1 1-1 2.5.2 1.4-.1 2.5-.6 2.5s-.9 1.1-.9 2.4c0 1.4-.5 2.8-1.1 3.1-.6.4-.8 1.4-.5 2.2s.1 1.1-.4.8c-.6-.3-1-.1-1 .4 0 .6-.5 1.1-1.1 1.1s-.2-1.5.9-3.3c1.1-1.7 2.3-5.5 2.7-8.2.4-2.8 1-5.4 1.3-6 1.7-2.8 2.4-31.2 1-41-1.2-9.2-3.8-20.5-6.6-28.5-.3-.8-.4-1.8-.4-2.3.1-.4-.5-2.4-1.3-4.3-.8-2-1.5-4.2-1.4-4.8 0-.6.9 1.4 2 4.4s2.7 6.8 3.4 8.3M22.4 78.9c.3.5-.1 1.4-.8 2-1.2 1-1.3.8-.9-.8.6-2.3.9-2.5 1.7-1.2M16 93.7c-1.1 1.7-1.1 1.7-.6 0 .3-1 .6-2.4.7-3 0-.9.2-.9.5 0 .3.7 0 2-.6 3m-5.1 18.1c-.5.2-.9 1.1-.9 1.9 0 .9-.2 1.4-.5 1.1s-.2-2 .2-3.8c.5-2.8.8-3.1 1.3-1.5.4 1.1.3 2.1-.1 2.3m.1 7.8c0 .8-1.9 1.3-2.4.6-.3-.5.1-.9.9-.9s1.5.2 1.5.3m-2 10.9c-.4 2.2-.8 3.3-.9 2.5s-.4-2.6-.8-3.9c-.5-1.8-.3-2.2.6-1.6 1 .6 1.1.1.7-1.6-.5-1.7-.4-2 .2-.9.6.9.7 3.2.2 5.5m.4 14c-.3 1.3-.2 3 .2 3.7.9 1.4 1.6 11.3.8 10.5-.3-.3-.9-3.1-1.4-6.3-.4-3.3-1.1-7.1-1.5-8.7-.6-2.2-.4-2.6.9-2.1 1.1.4 1.4 1.3 1 2.9m223.6 33c0 1.2-1.9 1.2-2.3 0-.4-.9-.1-1.2.9-.8.7.3 1.4.7 1.4.8m-4.8 6.7c-.8.8-.9.4-.5-1.3.4-1.3.8-1.8 1.1-1 .2.7-.1 1.8-.6 2.3m-1.7 1.8c.3.5.1 1-.4 1-.6 0-1.1-.5-1.1-1 0-.6.2-1 .4-1 .3 0 .8.4 1.1 1m-194.6 2.4c.9 1.1.9 1.6-.1 2.2-.7.4-1 .4-.6-.1.4-.4.3-1.4-.3-2.2-.6-.7-.9-1.3-.6-1.3.2 0 1 .6 1.6 1.4m193.1.2c0 .4-3 3.5-6.6 7q-9.45 9.15-8.1 5.1c.2-.6.8-1.2 1.4-1.2.5 0 2.6-1.5 4.7-3.3 2-1.7 3.4-3.2 3.2-3.2-.3 0 .5-1.1 1.7-2.4 2.2-2.4 3.7-3.2 3.7-2m-190.6 4c.3.8.2 1.2-.4.9s-1-1-1-1.6c0-1.4.7-1.1 1.4.7m6.6 4.5c.7.8 5.3 2.4 6.3 2.1.5-.1.6.2.3.7-1.1 1.7-9.2-2.6-11.1-5.9-.7-1.3 3 1.3 4.5 3.1m14 7.1c0 .5-.8.4-1.9-.1-1-.6-2-.8-2.3-.6-.3.3-.5-.1-.5-.9 0-1.1.5-1.2 2.4-.3 1.3.5 2.3 1.4 2.3 1.9m153.7-.6c-.3.3-1.1.6-1.9.8-.7.1-2.5 1-3.9 1.9-1.5 1-4.1 1.9-5.8 2.2-1.8.2-3.9.9-4.7 1.6-.8.6-1.4.7-1.4.3 0-1.3 3.9-3.6 5-2.9.6.4 1 .1 1-.5s.4-.9.9-.5c.5.3 1.2.1 1.6-.4.3-.6 1.3-.7 2.2-.4 1.1.4 1.4.3.9-.5s.3-1.4 2.3-1.8c1.7-.4 3.1-1.2 3.2-1.8 0-.6.3-.5.6.2s.3 1.6 0 1.8m-19.9 8.1c-1 .2-2.6.2-3.5 0-1-.3-.2-.5 1.7-.5s2.7.2 1.8.5M80 213c1.2.8 1.1 1-.7 1-1.3 0-2.3-.5-2.3-1 0-1.3 1.1-1.3 3 0m7.3 1c.8 0 .8.3 0 1.1-.9.9-1.6.7-3-.7-1.7-1.7-1.7-1.8 0-1.1 1 .4 2.4.7 3 .7"/>
    <path d="M54.6 51.5c-.9 2.6-.7 3.2.5 1.2.6-1 .9-2.1.6-2.3-.2-.3-.7.2-1.1 1.1m136.9.5c-.3.6.1.7.9.4 1.8-.7 2.1-1.4.7-1.4-.6 0-1.3.4-1.6 1M66 61.1c0 .5-.6.7-1.2.3-.9-.5-.9-.3.1.9 1.5 1.9 3.3 1.3 2.4-.8-.6-1.7-1.3-2-1.3-.4m116.5.8c-.3.5-.2 1.2.3 1.5s.9-.1.9-.9c0-1.7-.3-1.9-1.2-.6m34.4 3.6c1.7 3.3 3.1 5.1 3.1 4 0-.6-1-2.1-2.1-3.5-1.3-1.7-1.7-1.8-1-.5M34.4 69c0 1.3.4 1.6 1 1 .7-.7.7-1.3 0-2-.6-.6-1-.3-1 1m86.3 4.1c.7.7 1.5 1 1.8.7s-.2-.9-1.2-1.2c-1.4-.6-1.5-.5-.6.5m28.3 2c-1.9 1.2-5.9 4.3-8.9 7s-5.9 4.9-6.4 4.9-3.5-2.4-6.7-5.4c-3.2-2.9-7-5.6-8.4-5.8-4.7-.9-13.6 5.5-13.6 9.9 0 3 3.3 9.6 7.3 14.6l3 3.8-5.1 5.2c-9.2 9.6-10.3 15.1-3.4 18.6 8.2 4.2 9 4 17.1-4.4 4-4.1 7.7-7.5 8.1-7.5s4.8 4 9.7 9 9.6 9 10.5 9c4.1 0 10.4-8.3 9.4-12.4-.3-1.2-2.6-4.8-5.1-8-2.5-3.3-4.4-6.3-4.3-6.7.2-.4 3.4-3.4 7.3-6.6 7.4-6.2 11.5-11.4 11.5-14.4 0-1.1-1.7-3.7-3.7-6-6.5-7.2-12-8.6-18.3-4.8m13.1 2.9c2.5 1.6 5.1 4 5.8 5.3 1.9 3.6-.3 7.1-9.9 15.7-4.4 4-8 7.9-8 8.6s1.1 2.5 2.4 4.1c3.8 4.6 7.6 10.5 7.6 11.9 0 2-6 8.4-7.8 8.4-.9 0-5.5-4.1-10.2-9-4.7-5-9.2-9-10-9s-4.8 3.4-8.8 7.5l-7.2 7.6-3.8-1c-4.9-1.4-8.2-3.8-8.2-6 0-2.4 5-9.8 9.9-14.5l4-3.9-4-4.4c-4.8-5.2-8.4-12.6-7.2-14.8 1.6-2.7 7.7-6.5 10.5-6.5 2.1 0 4.6 1.6 9.3 6 4.1 3.8 7 5.8 7.8 5.4.6-.4 4.1-3.3 7.7-6.4 10.5-9.2 12.9-9.8 20.1-5"/>
    <path d="M144 105.4c0 .2.8 1 1.8 1.7 1.5 1.3 1.6 1.2.3-.4s-2.1-2.1-2.1-1.3M188 74c-.8.5-1 1-.5 1 .6 0 1.7-.5 2.5-1s1.1-1 .5-1c-.5 0-1.7.5-2.5 1m-64.5 1c-.3.6.1.7.9.4 1.8-.7 2.1-1.4.7-1.4-.6 0-1.3.4-1.6 1m-54.5.4c0 .2.7.7 1.6 1 .8.3 1.2.2.9-.4-.6-1-2.5-1.4-2.5-.6m-39.3 2.9c-.3.7-.2 1.9.3 2.6.5 1 .8.9 1.3-.2.3-.7.2-1.9-.3-2.6-.5-1-.8-.9-1.3.2m4 3.8c.7.7 1.5 1 1.8.7s-.2-.9-1.2-1.2c-1.4-.6-1.5-.5-.6.5m22.6.2c-1.7.7-3.5 1.5-3.9 1.9-1.2 1.2-2.6.9-1.8-.4.5-.7.3-.8-.5-.4-.7.5-1 1-.7 1.3s-.7 2.2-2.3 4.2c-12.3 15.6-15.7 38.8-7.2 48.3 2.3 2.6 3.7 3.2 8.2 3.5 4.5.4 6 .1 8.9-1.9 5.3-3.5 8.7-11.3 10-23.3.6-5.5 1.8-13.1 2.7-16.8 2-9 1.2-13.2-3-15.7-3.6-2.2-5.8-2.4-10.4-.7m10.2 3.2c2.7 2.6 3.1 5.5 1.5 12-.6 2.2-1.7 8.9-2.5 15-.9 6-2.3 13.1-3.1 15.7-4.3 13.1-18.9 15-24 3.1-5.7-13.3 6-43.6 18.2-47.3 4.9-1.4 7.4-1.1 9.9 1.5m66.2-3.4c.7.7 1.5 1 1.8.7s-.2-.9-1.2-1.2c-1.4-.6-1.5-.5-.6.5m-95.8 1.6c-1.3 1.6-1.2 1.7.4.4.9-.7 1.7-1.5 1.7-1.7 0-.8-.8-.3-2.1 1.3m152.9 0c.7.3 1.6.2 1.9-.1.4-.3-.2-.6-1.3-.5-1.1 0-1.4.3-.6.6M32 85.1c0 .5.5.7 1 .4.6-.3 1-.8 1-1.1 0-.2-.4-.4-1-.4-.5 0-1 .5-1 1.1m-5.4 4.7c-.3.5.1.9.9.9s1.2-.4.9-.9c-.3-.4-.7-.8-.9-.8s-.6.4-.9.8m173.7.7c0 .8.4 1.2.9.9s.6-1 .3-1.5c-.9-1.3-1.2-1.1-1.2.6m-165 5.7c-.1 1.1.1 1.6.5 1.2.4-.5 1.1-1.2 1.5-1.5.5-.3.2-.9-.5-1.2-.9-.3-1.4.3-1.5 1.5m-13.8-.1c-.4.6-.5 1.2-.2 1.5.2.3.7-.2 1-1.1.7-1.7.1-2-.8-.4m187.5 5.8c0 .5.7 1.2 1.6 1.5 1.4.5 1.5.4.4-.9-1.4-1.7-2-1.9-2-.6m-181.4.9c-.2.4.4.8 1.4.8s1.6-.4 1.4-.8c-.3-.4-.9-.8-1.4-.8s-1.1.4-1.4.8m136 .3c.2.4 1.3.7 2.4.6 2.3-.2 1.7-1-1-1.2-1-.1-1.7.2-1.4.6m-130 1.2c.3 1 .9 1.5 1.2 1.2s0-1.1-.7-1.8c-1-.9-1.1-.8-.5.6m182.7 1c-.4.6-.1.7.7.2.9-.5 1.1-.1.6 1.6-.3 1.3-.3 1.8 0 1.1.3-.6.9-1 1.3-.8.4.3.7-.3.7-1.3 0-1.9-2.3-2.4-3.3-.8m-111.7.9c.3.5 1 .6 1.5.3 1.3-.9 1.1-1.2-.6-1.2-.8 0-1.2.4-.9.9m52 1.5c-.6 1.4-.5 1.5.5.6.7-.7 1-1.5.7-1.8s-.9.2-1.2 1.2m2 1c-.6 1.4-.5 1.5.5.6.7-.7 1-1.5.7-1.8s-.9.2-1.2 1.2m-140.1.4c-.4.6-.5 1.2-.2 1.5.2.3.7-.2 1-1.1.7-1.7.1-2-.8-.4m3.5.9c-.9.6-1 1-.3 1 .6 0 1.5-.5 1.8-1 .8-1.2.4-1.2-1.5 0m141 2.4c0 .2.7.7 1.6 1 .8.3 1.2.2.9-.4-.6-1-2.5-1.4-2.5-.6m2.7 8.7c.4 1.3.8 1.8 1.1 1 .2-.7-.1-1.8-.6-2.3-.8-.8-.9-.4-.5 1.3m-96.6 8.5c0 1.1.3 1.4.6.6.3-.7.2-1.6-.1-1.9-.3-.4-.6.2-.5 1.3m49.5 3.7c.3 1 .9 1.5 1.2 1.2s0-1.1-.7-1.8c-1-.9-1.1-.8-.5.6M32 139.5c0 .5.5 1.7 1 2.5s1 1 1 .5c0-.6-.5-1.7-1-2.5s-1-1.1-1-.5m24.6 1.3c-.2.4.4.8 1.4.8s1.6-.4 1.4-.8c-.3-.4-.9-.8-1.4-.8s-1.1.4-1.4.8m-29 38c-.3.5.1.9.9.9s1.2-.4.9-.9c-.3-.4-.7-.8-.9-.8s-.6.4-.9.8m7.4 5.6c0 .2.8 1 1.8 1.7 1.5 1.3 1.6 1.2.3-.4s-2.1-2.1-2.1-1.3m173.3 8.3c.4.3.1 1.3-.6 2.2-1.1 1.4-1 1.4.5.2 1.6-1.2 1.6-3.1.1-3.1-.4 0-.3.3 0 .7m-155.8 4.2c-.6 1.1 1.3 2.6 2.2 1.7.4-.3 0-.6-.8-.6-1.1 0-1.1-.2.1-1 .9-.6 1-1 .3-1-.6 0-1.4.4-1.8.9m135.3 5.8c.7.3 1.6.2 1.9-.1.4-.3-.2-.6-1.3-.5-1.1 0-1.4.3-.6.6"/>
  </g>
</svg>