<svg xmlns="http://www.w3.org/2000/svg" viewBox="0 0 85.04 85.04" focusable="false"><path d="M42.52 85.04l-10.34-3.36-.32-.23-3.48-4.78-5.84.92-.39-.06-9.69-4.94-4.94-9.69-.07-.4.92-5.84-4.77-3.47-.23-.32L0 42.52l3.36-10.34.23-.32 4.78-3.48-.92-5.84.06-.39 4.94-9.69 9.69-4.94.39-.06 5.84.93 3.47-4.78.32-.23L42.52 0l10.34 3.36.32.23 3.48 4.78 5.84-.92.39.06 9.69 4.94 4.94 9.69.06.39-.93 5.84 4.78 3.47.23.32 3.36 10.35-3.36 10.34-.23.32-4.78 3.48.92 5.84-.06.39-4.94 9.69-9.69 4.94-.39.06-5.84-.92-3.47 4.78-.32.23-10.34 3.38zm0-82.66L33.5 5.31l-.21.15-3.9 5.37-6.69-1.06-8.57 4.37-4.3 8.45-.04.26 1.04 6.55-5.48 3.98-2.97 9.15 2.93 9.02.15.21 5.37 3.9-1.06 6.69 4.37 8.57 8.45 4.3.26.04 6.55-1.04 3.98 5.48 9.15 2.97 9.15-2.97 3.98-5.48 6.69 1.06 8.57-4.37 4.3-8.45.04-.26-1.04-6.55 5.48-3.98 2.97-9.15-2.93-9.02-.15-.21-5.37-3.9 1.06-6.69-4.37-8.57-8.45-4.3-.26-.04-6.55 1.04-3.98-5.48-9.15-2.97M19.25 44.84c0-2.18-1.56-2.89-3.91-3.19-.01 0-1.01-.14-1.02-.14-1.66-.2-2.43-.43-2.43-1.27 0-.75.61-1.25 2.12-1.25 1.59 0 2.45.46 2.57 1.67h2.52c-.12-2.31-1.74-3.7-5.07-3.7-3.14 0-4.58 1.43-4.58 3.4 0 2.19 1.56 2.88 3.79 3.18.01 0 1.01.14 1.02.14 1.68.2 2.56.39 2.56 1.31 0 .81-.7 1.36-2.35 1.36-1.75 0-2.73-.56-2.85-1.97H9.07c.13 2.51 1.7 4.03 5.37 4.03 3.3.01 4.82-1.48 4.81-3.57zm15.06 12.58c-.44-.04-2.09-.26-2.42-.3l-.65 4.24c-.89-.12-4.08-.59-4.93-.77l.65-4.24c-.29-.06-2.01-.36-2.41-.47l-1.64 10.73c.38.1 2.01.39 2.41.47l.65-4.24c.63.14 4.07.66 4.92.79l-.65 4.24c.35.06 1.95.27 2.42.33l1.65-10.78zm-2.43-29.09l-1.43-8.55c.63-.1 2.89-.44 3.39-.5l-.37-2.19c-1.3.12-7.58 1.16-9.1 1.54l.37 2.17c.52-.13 2.69-.51 3.26-.62l1.42 8.54c.4-.07 2.15-.35 2.46-.39zm-4.81 17.89c-1.92 0-2.94-1.09-2.94-3.25v-.52c0-2.2 1.02-3.31 2.94-3.31 1.91 0 2.95 1.08 2.95 3.31v.51c-.01 2.2-1.04 3.26-2.95 3.26zm-.01 2.2c3.34 0 5.47-1.76 5.47-5.39v-.63c0-3.6-2.16-5.43-5.46-5.43-3.31 0-5.46 1.85-5.46 5.43v.63c0 3.67 2.06 5.39 5.45 5.39zm18.78-4.66h-2.56c-.1 1.57-.96 2.44-2.74 2.44-1.94 0-2.98-1.07-2.98-3.23v-.51c0-2.24 1.06-3.31 3-3.31 1.72 0 2.61.84 2.71 2.34h2.55c-.2-2.94-2.06-4.53-5.25-4.53-3.41 0-5.51 1.86-5.51 5.42v.65c0 3.62 2.03 5.38 5.43 5.38 3.47.01 5.18-1.72 5.35-4.65zm-8.62-16.08c.33-.02 2.09-.07 2.46-.07l-.02-4.31c.33-.02 2.19-.02 2.48-.02.29 0 2.14 0 2.48.02l-.02 4.32c.37 0 2.11.03 2.45.06l.06-10.9c-.33-.02-2.14-.06-2.45-.06l-.02 4.34c-.33-.01-2.2-.02-2.5-.02-.3 0-2.16.01-2.5.03l-.02-4.34c-.37.01-2.13.05-2.46.07l.06 10.88zm10 35.88l-.05-5.85c-.44.03-2.19.06-2.51.06l.05 5.68c.02 2.35-.75 3.24-2.41 3.24-1.66 0-2.46-.89-2.45-3.24l.05-5.68c-.32-.01-2.07-.03-2.51-.06l-.05 5.85c-.03 3.78 1.62 5.38 4.94 5.38 3.25 0 4.97-1.6 4.94-5.38zm3.87-26.35h-2.41v10.96h2.41V37.21zm-.86-9.24c1.61.16 7.29 1 8.71 1.34l.36-2.03c-1.2-.29-5.32-.9-6.35-1.06l.36-2.3c.78.12 4.47.68 5.26.87l.36-2.01c-.83-.2-4.55-.77-5.31-.9l.35-2.33c.77.12 5.26.81 6.3 1.08l.35-2.03c-1.04-.28-7.08-1.22-8.73-1.41l-1.66 10.78zm5.99 35c1.76-.3 2.42-.06 2.57.82.14.85-.34 1.28-2.21 1.62-.32.06-2.09.35-2.48.41l-.39-2.43 2.51-.42zm-.76-4.3c1.62-.27 2.28-.07 2.42.78v.03c.14.88-.54 1.26-2.01 1.53-.4.08-2.41.39-2.49.41L53 59.07c.58-.09 2.14-.35 2.46-.4zm-3.43 9.52c1.05-.12 4.55-.69 5.11-.8 3.08-.56 4.51-1.69 4.16-3.79v-.01c-.23-1.34-.99-1.94-2.3-2.08 1.04-.55 1.48-1.35 1.28-2.6 0-.01-.01-.04-.01-.04-.33-1.99-1.95-2.67-5.08-2.15-.65.11-3.8.61-4.93.73l1.77 10.74zm9.01-24.28h-3.25l1.6-4.12.02-.01 1.63 4.13zm-7.45 4.26h2.57l.87-2.23h4.79l.89 2.23h2.59l-4.58-10.96h-2.59l-4.54 10.96zm22.36 0v-2.29h-5.89V37.2h-2.48v10.96h8.37z" fill="#fff"/></svg>