<svg xmlns="http://www.w3.org/2000/svg" xml:space="preserve" id="Layer_1" width="100%" x="0" y="0" viewBox="0 0 300 55">
	<path fill="#fff" stroke="none" d="M101.06 35.93c-3.28 1.066-2.57-2.473-4.017-3.55-.714-.532-1.055-1.564-1.564-2.37-.837.658-1.58 1.646-2.527 1.912-2.535.713-5.157 1.117-7.817 1.658l4.88 12.196h-4.059c-1.043-2.578-2.05-4.911-2.937-7.288-1.6-4.283-4.188-6.947-9.213-6.536-3.143.258-6.324.048-9.488.048-8.828 0-13.163 4.292-13.396 13.653l-4.941.444c1.226-2.784 2.179-4.702 2.909-6.702.384-1.053.696-2.32.462-3.36-.245-1.089-.958-2.422-1.868-2.934-1.508-.847-3.833 1.15-4.92-2.394-.568-1.85-3.038-1.113-3.78 2.095-1.133 4.901-3.468 9.524-5.565 14.975h-1.735c-2.88-8.505 4.066-14.27 6.08-22.036l12.33 2.752c-3.351-2.984-6.062-5.677-9.11-7.908-.718-.524-2.894.126-3.849.908-2.32 1.902-4.453 4.083-6.405 6.37-1.748 2.047-3.155 4.385-4.713 6.595l1.145 1.194-4.49.397c.635-3.036.324-6.368 1.839-7.94 5.958-6.177 12.432-11.867 18.907-17.517.604-.528 2.906.1 3.837.882 3.097 2.606 5.928 5.527 9.143 8.596 2.857-3.868 6.131-6.385 11.773-6.356 5.604.029 8.968 2.374 11.812 6.384 3.204-3.056 6.034-5.97 9.125-8.576.95-.8 3.246-1.496 3.85-.98 6.2 5.287 12.408 10.609 18.083 16.437 1.802 1.851 2.02 5.245 3.175 8.54l-4.34.442c-.375-.4-.59-.527-.582-.638.515-7.161-6.202-9.121-9.563-13.51-1.98-2.585-2.802-2.34-5.043-.169-2.526 2.448-5.96 3.96-9.182 6.655l13.149-2.368c.877 3.227 1.705 6.276 2.535 9.698.001.373.07.3.07.3m81.942 7.82C183 35.006 183 26.736 183 18.001c4.739 0 9.24-.449 13.567.226 1.681.261 4.048 2.947 4.23 4.721.557 5.413.203 10.92.203 16.942h-11.886v6.882c-2.437-1.016-4.274-1.782-6.112-3.023m7.588-21.744c-.53.622-1.493 1.228-1.516 1.869-.142 3.914-.071 7.836-.071 11.935H195c0-3.684-.243-7.29.073-10.848.277-3.112-1.41-3.124-4.483-2.956m17.523 17.959c-.474-9.23-.474-18.43-.474-27.764h5.37v5.305c.657.244.959.466 1.246.448 12.363-.772 10.841 2.367 10.75 11.109-.035 3.468-.005 6.937-.005 10.67h-5.845V22.218l-5.966-.269v17.789c-1.769.099-3.186.178-5.076.226M166.046 40h-6.735V18.011c4.547 0 9.32-.303 14.007.191 1.351.143 3.228 2.44 3.517 3.999.56 3.019.163 6.215.163 9.716h-11.762v3.97h11.403c.646 2.69.828 4.462-2.63 4.155-2.474-.219-4.982-.042-7.963-.042m1.488-18c-4.954.3-1.52 3.736-2.647 5.655h7.359c-2.627-1.886 1.144-5.796-4.712-5.655m97.442 18h-9.685V26.21h11.46l.209-4.124h-7.645l-.28-3.964c3.98 0 7.815-.698 11.123.316 1.488.457 2.51 4.284 2.719 6.67.416 4.755.123 9.57.123 14.892zm1.332-9.942h-5.367l.254 5.705h5.75c0-1.84 0-3.447-.637-5.705M153 30.987v8.786l-5.785.288V22.25l-6.107-.349v17.9h-5.919V18c4.285 0 8.395.04 12.504-.012 3.79-.048 5.41 1.86 5.318 5.53-.058 2.325-.011 4.652-.011 7.47m96-1.018v9.79l-5.677.326V12.224H249zm-12 .997v8.794l-5.667.327v-21.86H237z" opacity="1" />
	<path fill="#fff" stroke="none" d="M100.955 36.037c6.494 1.856 3.136 7.262 4.264 11.544l-4.215.488c0-3.953 0-7.58.028-11.673.028-.467-.04-.394-.077-.36m174.857-20.037c-4.111.34-2.844-2.518-2.664-4.032.125-1.058 1.558-2.645 2.524-2.734 1.032-.095 3.243 1.596 3.13 1.977-.497 1.7-1.642 3.21-2.99 4.789" opacity="1" />
</svg>
