<svg width="129" height="24" viewBox="0 0 129 24" fill="none" xmlns="http://www.w3.org/2000/svg">
  <path fill-rule="evenodd" clip-rule="evenodd" d="M10.9721 23.7059L0.6589 18.7649C-0.219633 18.3335 -0.219633 17.6669 0.6589 17.2748L4.24943 15.5493L10.9339 18.7649C11.8125 19.1963 13.2257 19.1963 14.0661 18.7649L20.7506 15.5493L24.3411 17.2748C25.2196 17.7061 25.2196 18.3728 24.3411 18.7649L14.0279 23.7059C13.2257 24.0981 11.8125 24.0981 10.9721 23.7059Z" fill="#FF6F3D" />
  <path fill-rule="evenodd" clip-rule="evenodd" d="M10.9387 17.5916L0.656893 12.6449C-0.218964 12.213 -0.218964 11.5456 0.656893 11.153L4.16032 9.46484L10.9387 12.7234C11.8145 13.1553 13.2235 13.1553 14.0613 12.7234L20.8397 9.46484L24.3431 11.153C25.219 11.5849 25.219 12.2523 24.3431 12.6449L14.0613 17.5916C13.1855 18.0235 11.7765 18.0235 10.9387 17.5916Z" fill="#95C038" />
  <path fill-rule="evenodd" clip-rule="evenodd" d="M10.9387 11.5408L0.656893 6.66521C-0.218964 6.23956 -0.218964 5.58175 0.656893 5.1948L10.9387 0.319234C11.8145 -0.106411 13.2235 -0.106411 14.0613 0.319234L24.3431 5.1948C25.219 5.62044 25.219 6.27826 24.3431 6.66521L14.0613 11.5408C13.1855 11.9277 11.7765 11.9277 10.9387 11.5408Z" fill="#5DC0E8" />
  <path d="M37.5385 6C34.5431 6 31.5996 7.74302 31.5996 12C31.5996 16.257 34.5431 18 37.5385 18C40.534 18 43.4775 16.257 43.4775 12C43.4775 7.74302 40.534 6 37.5385 6ZM37.5385 7.67598C38.4562 7.67598 40.8803 8.02793 40.8803 12C40.8803 15.9721 38.4562 16.324 37.5385 16.324C36.6209 16.324 34.1968 15.9721 34.1968 12C34.1968 8.02793 36.6209 7.67598 37.5385 7.67598Z" fill="#fff" />
  <path d="M45.475 6.13408V17.8659H47.9337V10.9609L47.8818 8.88268H47.9337L48.5397 10.1899L52.7645 17.8659H55.9504V6.13408H53.4917V13.0391L53.5437 15.1173H53.4917L52.8511 13.5251L48.6609 6.13408H45.475Z" fill="#fff" />
  <path d="M58.3765 6.13408V17.8659H65.6487V15.8883H60.8352V6.13408H58.3765Z" fill="#fff" />
  <path d="M63.5709 6.13408L68.0381 13.0726V17.8659H70.4968V13.1061L74.8601 6.13408H72.2629L69.7523 10.257L69.3367 11.0615H69.2848L68.9038 10.257L66.4105 6.13408H63.5709Z" fill="#fff" />
  <path d="M80.5885 6C77.5931 6 74.6496 7.74302 74.6496 12C74.6496 16.257 77.5931 18 80.5885 18C83.584 18 86.5275 16.257 86.5275 12C86.5275 7.74302 83.584 6 80.5885 6ZM80.5885 7.67598C81.5062 7.67598 83.9303 8.02793 83.9303 12C83.9303 15.9721 81.5062 16.324 80.5885 16.324C79.6709 16.324 77.2468 15.9721 77.2468 12C77.2468 8.02793 79.6709 7.67598 80.5885 7.67598Z" fill="#fff" />
  <path d="M88.525 6.13408V17.8659H90.9837V12.8883H95.1046V10.9609H90.9837V8.11173H95.3124V6.13408H88.525Z" fill="#fff" />
  <path d="M97.0471 6.13408V17.8659H99.5058V12.8883H103.627V10.9609H99.5058V8.11173H103.834V6.13408H97.0471Z" fill="#fff" />
  <path d="M105.569 17.8659H108.028V6.13408H105.569V17.8659Z" fill="#fff" />
  <path d="M119.304 15.5028C118.698 15.771 117.849 16.0223 116.776 16.0223C114.594 16.0223 112.62 14.8659 112.62 12.0335C112.62 9.63687 114.23 7.97765 116.949 7.97765C117.867 7.97765 118.646 8.14525 119.356 8.41341L119.459 6.40223C118.542 6.11732 117.728 6 116.776 6C112.966 6 110.023 8.02793 110.023 12.067C110.023 16.3408 113.313 18 116.326 18C117.295 18 118.386 17.8492 119.459 17.4972L119.304 15.5028Z" fill="#fff" />
  <path d="M121.362 6.13408V17.8659H128.6V15.7877H123.821V12.7877H128.167V10.8603H123.821V8.21229H128.6V6.13408H121.362Z" fill="#fff" />
</svg>
