<svg width="190" height="38" viewBox="0 0 190 38" xmlns="http://www.w3.org/2000/svg">
  <path d="M36.034 8.998c-2.264 5.015-8.85 9.082-14.71 9.082h6.367c5.863 0 12.45-4.067 14.714-9.082 1.782-3.948.355-7.306-3.19-8.558h-6.37c3.546 1.252 4.973 4.61 3.19 8.558z" fill="#F6CA22" />
  <path d="M42.587 35.02l-.503-6.19h1.71l.064.443c.612 4.036 2.623 6.055 6.033 6.055 1.47 0 2.73-.474 3.788-1.424 1.053-.95 1.582-2.087 1.582-3.414 0-.826-.273-1.554-.815-2.187-.543-.62-1.86-1.51-3.943-2.673l-2.036-1.15c-3.887-2.19-5.83-4.628-5.83-7.32 0-1.997.716-3.58 2.148-4.74 1.43-1.16 3.367-1.74 5.815-1.74 2.073 0 4.347.463 6.822 1.39v5.158h-1.71l-.064-.425c-.1-.716-.237-1.33-.41-1.845-.172-.514-.42-.968-.744-1.362-.322-.395-.778-.757-1.367-1.084-.59-.328-1.457-.492-2.605-.492-1.205 0-2.194.358-2.96 1.07-.77.716-1.154 1.633-1.154 2.753 0 1.635 1.512 3.314 4.537 5.035l2.258 1.282c2.208 1.25 3.735 2.404 4.58 3.46.832 1.075 1.25 2.383 1.25 3.927 0 2.147-.838 3.87-2.51 5.17-1.672 1.3-3.88 1.952-6.626 1.952-2.886 0-5.326-.55-7.31-1.65M74.367 33.935c-2.607 0-4.792-.96-6.55-2.878-1.763-1.916-2.643-4.32-2.643-7.21 0-.193.006-.544.02-1.05H81.64v-.704c0-3.59-.827-6.392-2.48-8.4-1.653-2.01-3.968-3.014-6.944-3.014-3.305 0-6.056 1.234-8.254 3.702-2.195 2.47-3.293 5.57-3.293 9.304 0 3.776 1.143 6.885 3.435 9.325 2.29 2.44 5.21 3.66 8.76 3.66 2.95 0 5.992-.93 9.125-2.786V31.82c-2.59 1.41-5.133 2.115-7.623 2.115zM67.53 14.573c1.25-1.703 2.785-2.554 4.607-2.554 1.472 0 2.68.61 3.62 1.834.937 1.222 1.406 2.8 1.406 4.728 0 1.254-.428 2.045-1.288 2.377-.86.33-2.908.496-6.144.496h-4.485c.275-2.887 1.037-5.182 2.285-6.883zM97.33 33.935c-2.606 0-4.79-.96-6.552-2.878-1.76-1.916-2.64-4.32-2.64-7.21 0-.193.007-.544.02-1.05h16.444v-.704c0-3.59-.826-6.392-2.478-8.4-1.655-2.01-3.968-3.014-6.944-3.014-3.307 0-6.058 1.234-8.252 3.702-2.2 2.47-3.296 5.57-3.296 9.304 0 3.776 1.145 6.885 3.434 9.325 2.292 2.44 5.212 3.66 8.762 3.66 2.95 0 5.99-.93 9.127-2.786V31.82c-2.593 1.41-5.134 2.115-7.626 2.115zm-6.836-19.362c1.25-1.703 2.784-2.554 4.607-2.554 1.472 0 2.68.61 3.618 1.834.94 1.222 1.41 2.8 1.41 4.728 0 1.254-.43 2.045-1.29 2.377-.86.33-2.908.496-6.144.496H88.21c.274-2.887 1.035-5.182 2.284-6.883zM114.39 36.67l-6.518-19.453c-.987-3.016-1.923-4.527-2.81-4.527h-.278v-1.34h9.16v1.34h-.276c-1.56 0-2.342.486-2.342 1.458 0 .265.064.61.194 1.038.14.5.22.795.233.883.186.705.295 1.094.324 1.17l4.394 13.105 6.52-18.995h1.358l7.69 19.174L136 17.24c.41-1.444.62-2.49.62-3.137 0-.942-.63-1.413-1.89-1.413h-.322v-1.34h6.637v1.34h-.323c-1.06 0-2.054 1.518-2.985 4.55l-5.946 19.43h-1.357l-7.805-19.74-6.83 19.74h-1.41M154.432 33.935c-2.605 0-4.79-.96-6.55-2.878-1.762-1.916-2.642-4.32-2.642-7.21 0-.193.007-.544.02-1.05h16.446v-.704c0-3.59-.826-6.392-2.478-8.4-1.655-2.01-3.97-3.014-6.946-3.014-3.306 0-6.057 1.234-8.253 3.702-2.197 2.47-3.297 5.57-3.297 9.304 0 3.776 1.147 6.885 3.437 9.325 2.29 2.44 5.21 3.66 8.76 3.66 2.95 0 5.993-.93 9.128-2.786V31.82c-2.592 1.41-5.135 2.115-7.626 2.115zm-6.834-19.362c1.25-1.703 2.784-2.554 4.603-2.554 1.476 0 2.682.61 3.62 1.834.94 1.222 1.41 2.8 1.41 4.728 0 1.254-.43 2.045-1.29 2.377-.86.33-2.907.496-6.142.496h-4.486c.273-2.887 1.036-5.182 2.286-6.883zM189.265 23.176v-.587c-.052-3.408-.987-6.227-2.808-8.46-1.873-2.302-4.26-3.45-7.16-3.45-1.422 0-2.89.382-4.406 1.148-1.512.767-3.076 1.916-4.683 3.45V.44h-1.728l-6.243 2.323v.31l1.227.535c1.29.582 2.073 1.164 2.352 1.747.278.58.42 1.946.42 4.092v27.376l2.52-1.496c1.205.44 2.413.772 3.627 1.002 1.21.224 2.428.34 3.646.34 3.905 0 7.085-1.283 9.545-3.848 2.404-2.505 3.633-5.72 3.69-9.646m-15.574-8.173c1.13-.476 2.227-.714 3.29-.714 2.346 0 4.258.954 5.74 2.867 1.482 1.912 2.222 4.39 2.222 7.44 0 3.06-.733 5.58-2.2 7.558-1.468 1.98-3.338 2.966-5.61 2.966-1.222 0-2.468-.32-3.743-.966-1.274-.644-2.333-1.494-3.183-2.55v-14.46c1.194-.952 2.356-1.665 3.484-2.14M27.23 19.104h-6.37c5.862 0 8.78 4.065 6.516 9.08-2.266 5.017-8.85 9.08-14.715 9.08h6.37c5.862 0 12.45-4.063 14.714-9.08 2.265-5.015-.653-9.08-6.514-9.08" fill="#fff" />
  <path d="M14.673 19.104h-6.37c5.862 0 8.778 4.065 6.515 9.08-2.264 5.017-8.85 9.08-14.713 9.08h6.37c5.86 0 12.447-4.063 14.712-9.08 2.264-5.015-.654-9.08-6.514-9.08M20.287.44c3.545 1.252 4.972 4.61 3.19 8.558-2.262 5.015-8.85 9.082-14.71 9.082h6.366c5.863 0 12.45-4.067 14.714-9.082 1.78-3.948.354-7.306-3.192-8.558h-6.368" fill="#fff" />
</svg>
