<svg xmlns="http://www.w3.org/2000/svg" xml:space="preserve" width="100%" height="100%" style="fill-rule:evenodd;clip-rule:evenodd;stroke-linejoin:round;stroke-miterlimit:2" viewBox="733 907 1886 564">
    <g id="logo-viola-su-bianco" transform="translate(-3951)translate(3951.7)scale(4.16667)">
      <path id="logo" d="m16046 9337.72-63.2 107.49c-8.2 13.99-23.2 22.58-39.5 22.58-16.2 0-31.2-8.59-39.4-22.58l-205.4-349.23c-12.8-21.78-5.6-49.87 16.2-62.68 21.8-12.82 49.9-5.53 62.7 16.25l165.9 282.12 46.7-79.33c.9-1.62 2-3.17 3.1-4.63l-89.2-151.73c-12.9-21.78-5.6-49.87 16.2-62.68 21.8-12.82 49.9-5.53 62.7 16.25l165.9 282.12 46.7-79.33c3.4-5.87 8-10.68 13.2-14.33 7.8-5.79 17.4-9.21 27.9-9.21 25.8 0 46.7 20.95 46.7 46.75 0 56.66 54.4 99.69 118.2 99.69 24.6 0 47.5-6.35 66.7-17.46 22.3-12.96 50.9-5.36 63.9 16.96 12.9 22.32 5.3 50.96-17 63.91-32.7 18.96-71.7 30.1-113.6 30.1-74.1 0-138.5-34.66-176.2-86.4l-37 62.86c-8.2 13.99-23.3 22.58-39.5 22.58s-31.2-8.59-39.5-22.58zm211.7-107.44c-6.2-1.88-12.1-5.07-17.2-9.61-19.4-17.04-21.3-46.61-4.3-65.99 38.4-43.68 98-72.33 165.2-72.33 118.3 0 211.7 88.18 211.7 193.2 0 25.81-20.9 46.76-46.7 46.76-58.3 0-308.7-92.03-308.7-92.03m248.3-1.48c-20.1-31.96-60-52.94-104.6-52.94-38.5 0-73 15.55-95 40.57-4.9 5.58-2.2 12.37 5.2 12.37zm145.5-117.01c-13.1-8.06-21.9-22.53-21.9-39.02 0-25.27 20.5-45.79 45.8-45.79h90.9V9422c0 25.27-20.5 45.79-45.8 45.79s-45.8-20.52-45.8-45.79v-258.57s0-36.29-23.2-51.64m689.8-56.91v214.22c0 9.34 9.6 10.76 13.5 4.49 8-12.97 19.3-30.64 29.9-46.25 1.1-1.58 2.1-3.15 3.2-4.7.3-.5.7-.99 1-1.47 56.2-81.01 115.3-127.85 115.3-127.85 19.7-15.77 48.6-12.54 64.3 7.22 15.8 19.75 12.6 48.59-7.2 64.35 0 0-78.3 65.86-82.7 85.42-2 8.94-.3 18.05 7 27.38 32.1 41 97.8 118.38 97.8 118.38 14.3 20.83 9 49.36-11.8 63.67-20.9 14.31-49.4 9.02-63.7-11.81l-81.3-118.29c-29.5-37.99-85.3-24-85.3 31.1V9422c0 25.27-20.5 45.79-45.8 45.79s-45.8-20.52-45.8-45.79v-349.23c0-25.27 20.5-45.79 45.8-45.79h77.3c-16.2 0-29.6 12.19-31.5 27.9m-426.6 68.04 73.2 196.48s5.4 12.94 20.7 12.94 20.3-13.03 20.3-13.03l76.8-206.19c7-18.84 25.1-30.33 44.2-29.8 4.9.14 64.5 0 64.5 0l-22.9 61.77-92.3 247.81c-.9 2.33-29 76.27-29 76.27-45.2 121.25-172.4 101.87-172.4 101.87-25-3.78-42.2-27.14-38.4-52.13s27.1-42.21 52.1-38.42c0 0 53.7 8.01 72.8-43.29 1.4-3.21 1.1-6.9-.8-9.82s-5.2-4.67-8.7-4.67h-14.3c-19.2 0-36.3-11.89-42.9-29.81l-92.4-247.81c-8.8-23.68 3.3-50.07 27-58.9 6.2-2.31 12.6-3.19 18.8-2.8v-.08h74.5c-17.5 0-31.8 14.23-31.8 31.76 0 2.7.4 5.33 1 7.85" style="fill:#fff" transform="matrix(.24 0 0 .24 -3591.69 -1948.65)" />
    </g>
</svg>
